<svg width="94" height="54" viewBox="0 0 94 54" fill="none" xmlns="http://www.w3.org/2000/svg">
<path d="M68.2381 1.32232C67.8035 0.887663 67.2139 0.643476 66.5992 0.643476C65.9845 0.643476 65.395 0.887663 64.9604 1.32232C64.5257 1.75697 64.2815 2.34649 64.2815 2.96119C64.2815 3.57588 64.5257 4.1654 64.9604 4.60005L85.2587 24.8984L3.01119 24.8984C2.39641 24.8984 1.80682 25.1426 1.37211 25.5773C0.937396 26.0121 0.693177 26.6016 0.693179 27.2164C0.693176 27.8312 0.937391 28.4208 1.3721 28.8555C1.80682 29.2902 2.39641 29.5344 3.01119 29.5344L85.2587 29.5344L64.9604 49.8328C64.5257 50.2674 64.2815 50.857 64.2815 51.4717C64.2815 52.0864 64.5257 52.6759 64.9604 53.1105C65.395 53.5452 65.9845 53.7894 66.5992 53.7894C67.2139 53.7894 67.8035 53.5452 68.2381 53.1105L92.4933 28.8553C93.398 27.9506 93.398 26.4822 92.4933 25.5776L68.2381 1.32232Z" fill="#282828"/>
</svg>
