<svg width="264" height="264" viewBox="0 0 264 264" fill="none" xmlns="http://www.w3.org/2000/svg">
<g filter="url(#filter0_dd_913_34241)">
<path d="M239.221 132.016C239.221 191.386 191.091 239.516 131.721 239.516C72.3501 239.516 24.2207 191.386 24.2207 132.016C24.2207 72.645 72.3501 24.5156 131.721 24.5156C191.091 24.5156 239.221 72.645 239.221 132.016Z" fill="#9AD351"/>
<path d="M234.833 142.668L222.786 141.923L222.88 140.396L228.361 140.735L228.771 134.1L223.29 133.762L223.385 132.234L235.432 132.979L235.337 134.506L230.128 134.184L229.718 140.819L234.927 141.141L234.833 142.668Z" fill="#282828"/>
<path d="M233.688 150.291L233.45 151.561L220.68 154.191L220.98 152.587L224.718 151.832L225.648 146.852L222.431 144.816L222.731 143.212L233.688 150.291ZM225.95 151.717L231.831 150.601L226.762 147.372L225.95 151.717Z" fill="#282828"/>
<path d="M218.66 160.714L223.491 162.182C223.467 161.949 223.449 161.677 223.437 161.366C223.425 161.054 223.442 160.704 223.489 160.316C223.544 159.941 223.637 159.537 223.769 159.104C224.158 157.824 224.728 156.961 225.479 156.514C226.242 156.071 227.247 156.038 228.494 156.417L232.235 157.554L231.805 158.969L228.226 157.882C227.391 157.628 226.718 157.642 226.206 157.925C225.701 158.222 225.308 158.831 225.028 159.753C224.884 160.23 224.791 160.729 224.751 161.25C224.708 161.782 224.722 162.224 224.792 162.577L230.209 164.223L229.774 165.654L218.225 162.146L218.66 160.714Z" fill="#282828"/>
<path d="M227.164 172.308L226.652 173.494L213.617 173.235L214.264 171.737L218.076 171.828L220.084 167.177L217.397 164.48L218.044 162.981L227.164 172.308ZM219.303 171.987L225.285 172.2L221.055 167.929L219.303 171.987Z" fill="#282828"/>
<path d="M218.389 186.431L220.441 182.806L211.121 177.53L211.874 176.198L221.194 181.475L223.246 177.85L224.43 178.52L219.572 187.101L218.389 186.431Z" fill="#282828"/>
<path d="M208.729 181.649L218.542 188.677L217.651 189.921L213.933 187.258L212.25 189.607C211.735 190.326 211.177 190.833 210.576 191.127C209.984 191.428 209.372 191.533 208.74 191.443C208.11 191.368 207.491 191.113 206.883 190.677C206.312 190.268 205.877 189.776 205.579 189.199C205.29 188.63 205.18 188.014 205.25 187.353C205.319 186.692 205.601 186.016 206.096 185.325L208.729 181.649ZM208.875 183.635L207.251 185.901C206.902 186.39 206.71 186.852 206.676 187.288C206.652 187.731 206.743 188.13 206.948 188.486C207.162 188.848 207.444 189.155 207.794 189.406C208.144 189.657 208.518 189.826 208.914 189.915C209.304 190.013 209.7 189.976 210.102 189.804C210.513 189.639 210.907 189.293 211.283 188.768L212.897 186.516L208.875 183.635Z" fill="#282828"/>
<path d="M199.965 193.171L208.5 201.706L201.913 208.293L193.378 199.758L194.46 198.676L202.033 206.25L206.457 201.826L198.883 194.253L199.965 193.171Z" fill="#282828"/>
<path d="M192.016 200.972L199.536 210.412L195.6 213.548C195.184 213.88 194.732 214.095 194.245 214.193C193.765 214.3 193.28 214.309 192.79 214.221C192.307 214.143 191.85 213.978 191.419 213.727C190.994 213.486 190.634 213.179 190.337 212.807C189.928 212.292 189.651 211.709 189.507 211.055C189.37 210.411 189.394 209.776 189.578 209.152C189.768 208.536 190.143 208.006 190.701 207.561L193.52 205.316L190.819 201.925L192.016 200.972ZM194.368 206.379L191.615 208.572C191.287 208.833 191.074 209.148 190.976 209.516C190.869 209.891 190.869 210.282 190.976 210.689C191.074 211.104 191.265 211.488 191.547 211.843C191.844 212.215 192.188 212.484 192.581 212.649C192.981 212.824 193.376 212.893 193.767 212.856C194.159 212.82 194.509 212.678 194.82 212.431L197.492 210.302L194.368 206.379Z" fill="#282828"/>
<path d="M179.875 209.736C180.599 209.29 181.344 209.031 182.111 208.958C182.878 208.885 183.63 208.961 184.368 209.186C185.101 209.426 185.774 209.784 186.386 210.259C187.004 210.743 187.515 211.314 187.919 211.97C188.341 212.655 188.622 213.381 188.761 214.147C188.896 214.929 188.895 215.695 188.758 216.445C188.617 217.21 188.339 217.914 187.922 218.556C187.512 219.208 186.959 219.748 186.265 220.176C185.541 220.622 184.792 220.877 184.02 220.94C183.247 221.003 182.493 220.915 181.76 220.674C181.026 220.434 180.353 220.076 179.741 219.601C179.129 219.126 178.624 218.566 178.226 217.919C177.804 217.234 177.521 216.503 177.376 215.728C177.237 214.961 177.238 214.196 177.378 213.43C177.515 212.68 177.792 211.984 178.209 211.342C178.625 210.699 179.18 210.164 179.875 209.736ZM186.602 212.781C186.281 212.26 185.887 211.804 185.42 211.413C184.949 211.037 184.443 210.756 183.903 210.57C183.362 210.384 182.806 210.314 182.235 210.359C181.664 210.405 181.114 210.591 180.583 210.918C180.033 211.256 179.612 211.675 179.32 212.174C179.029 212.673 178.852 213.208 178.791 213.778C178.72 214.354 178.755 214.931 178.898 215.509C179.031 216.092 179.249 216.63 179.552 217.122C179.873 217.644 180.269 218.092 180.74 218.467C181.201 218.849 181.707 219.13 182.257 219.31C182.804 219.506 183.359 219.576 183.924 219.521C184.486 219.482 185.027 219.301 185.548 218.98C186.098 218.642 186.519 218.223 186.811 217.724C187.108 217.234 187.292 216.702 187.364 216.125C187.425 215.555 187.389 214.978 187.256 214.395C187.129 213.821 186.911 213.283 186.602 212.781Z" fill="#282828"/>
<path d="M166.789 218.137L166.217 216.903L173.653 213.46L178.725 224.412L171.428 227.791L170.857 226.557L176.765 223.821L175.122 220.273L169.985 222.652L169.449 221.495L174.586 219.116L172.836 215.337L166.789 218.137Z" fill="#282828"/>
<path d="M165.209 217.315L169.065 228.753L167.615 229.242L165.948 224.296L164.417 224.812L162.315 231.028L160.64 231.593L163.024 224.618L156.494 220.253L158.266 219.656L163.94 223.502L165.503 222.975L163.759 217.804L165.209 217.315Z" fill="#282828"/>
<path d="M149.243 232.85L153.308 231.945L150.982 221.491L152.475 221.158L154.802 231.613L158.867 230.708L159.163 232.035L149.538 234.177L149.243 232.85Z" fill="#282828"/>
<path d="M142.478 226.911L142.593 228.266L137.596 228.691L137.481 227.336L142.478 226.911Z" fill="#282828"/>
<path d="M120.301 235.062L121.092 223.018L122.619 223.119L122.259 228.598L128.892 229.033L129.252 223.554L130.779 223.655L129.988 235.699L128.461 235.598L128.803 230.391L122.17 229.955L121.828 235.163L120.301 235.062Z" fill="#282828"/>
<path d="M112.909 233.884L111.64 233.642L109.059 220.862L110.662 221.168L111.402 224.909L116.378 225.858L118.427 222.649L120.03 222.955L112.909 233.884ZM111.513 226.141L112.606 232.026L115.855 226.969L111.513 226.141Z" fill="#282828"/>
<path d="M102.413 218.76L100.927 223.585C101.16 223.562 101.432 223.545 101.743 223.534C102.055 223.523 102.405 223.542 102.793 223.591C103.167 223.647 103.571 223.741 104.004 223.875C105.282 224.268 106.143 224.842 106.587 225.595C107.028 226.359 107.057 227.364 106.673 228.61L105.522 232.347L104.109 231.911L105.21 228.337C105.466 227.503 105.454 226.829 105.174 226.316C104.879 225.81 104.271 225.415 103.35 225.132C102.874 224.985 102.375 224.891 101.854 224.849C101.323 224.804 100.88 224.816 100.527 224.885L98.861 230.295L97.4313 229.855L100.983 218.32L102.413 218.76Z" fill="#282828"/>
<path d="M90.848 227.211L89.6638 226.695L89.9711 213.66L91.4669 214.313L91.362 218.125L96.0054 220.15L98.7125 217.473L100.208 218.126L90.848 227.211ZM91.1978 219.351L90.9628 225.332L95.2491 221.119L91.1978 219.351Z" fill="#282828"/>
<path d="M76.8099 218.381L80.4268 220.447L85.7377 211.146L87.0663 211.905L81.7554 221.205L85.3723 223.271L84.6979 224.452L76.1355 219.562L76.8099 218.381Z" fill="#282828"/>
<path d="M81.638 208.742L74.5378 218.503L73.3005 217.603L75.9906 213.905L73.6535 212.205C72.9386 211.685 72.4362 211.123 72.1463 210.52C71.8498 209.926 71.749 209.313 71.844 208.681C71.9233 208.052 72.1829 207.435 72.6229 206.83C73.0362 206.262 73.5321 205.831 74.1104 205.537C74.682 205.252 75.2982 205.147 75.9589 205.221C76.6197 205.295 77.2938 205.582 77.9811 206.082L81.638 208.742ZM79.6507 208.873L77.3961 207.233C76.9103 206.88 76.4496 206.685 76.0138 206.648C75.5713 206.621 75.1714 206.708 74.8139 206.911C74.4497 207.122 74.141 207.402 73.8877 207.75C73.6343 208.099 73.4618 208.471 73.3701 208.867C73.2693 209.256 73.3034 209.652 73.4725 210.055C73.6349 210.468 73.9774 210.864 74.4998 211.244L76.7406 212.874L79.6507 208.873Z" fill="#282828"/>
<path d="M70.2429 199.964L61.6772 208.467L55.1138 201.856L63.6795 193.352L64.7574 194.438L57.1569 201.984L61.5644 206.423L69.165 198.878L70.2429 199.964Z" fill="#282828"/>
<path d="M62.4546 191.974L52.9594 199.425L49.8528 195.467C49.524 195.048 49.3123 194.594 49.2177 194.107C49.1143 193.626 49.1082 193.141 49.1995 192.652C49.2819 192.169 49.4499 191.713 49.7035 191.284C49.9482 190.861 50.2578 190.503 50.6322 190.209C51.1493 189.803 51.7351 189.531 52.3896 189.392C53.0351 189.26 53.6694 189.288 54.2925 189.476C54.9066 189.671 55.4341 190.05 55.8749 190.611L58.0998 193.446L61.5101 190.77L62.4546 191.974ZM57.0299 194.286L54.8574 191.518C54.5986 191.188 54.2855 190.972 53.9183 190.872C53.5441 190.762 53.1529 190.759 52.7448 190.863C52.3297 190.959 51.9439 191.146 51.5873 191.426C51.2128 191.72 50.9414 192.062 50.7731 192.454C50.596 192.852 50.5241 193.247 50.5576 193.639C50.5911 194.03 50.7303 194.382 50.9752 194.694L53.0847 197.382L57.0299 194.286Z" fill="#282828"/>
<path d="M53.7754 179.813C54.2158 180.54 54.4696 181.287 54.537 182.055C54.6044 182.822 54.523 183.574 54.2928 184.31C54.0471 185.041 53.6845 185.712 53.205 186.32C52.7159 186.934 52.1417 187.441 51.4825 187.84C50.7943 188.257 50.0666 188.532 49.2994 188.666C48.5166 188.796 47.7508 188.789 47.0019 188.646C46.2374 188.5 45.5355 188.216 44.8962 187.795C44.2472 187.38 43.7114 186.823 43.2886 186.126C42.8482 185.399 42.5992 184.648 42.5415 183.875C42.4839 183.102 42.5779 182.349 42.8236 181.617C43.0693 180.885 43.4319 180.215 43.9114 179.607C44.3908 178.998 44.9553 178.497 45.6048 178.104C46.293 177.687 47.0256 177.409 47.8025 177.27C48.5697 177.136 49.3355 177.143 50.1 177.289C50.8489 177.432 51.543 177.714 52.1823 178.135C52.8216 178.556 53.3526 179.115 53.7754 179.813ZM50.681 186.517C51.2045 186.2 51.6635 185.81 52.0581 185.345C52.4371 184.877 52.7216 184.374 52.9118 183.834C53.102 183.295 53.1764 182.74 53.1351 182.169C53.0938 181.597 52.9117 181.045 52.5888 180.512C52.2541 179.959 51.8383 179.536 51.3414 179.24C50.8446 178.945 50.3112 178.765 49.7415 178.699C49.1658 178.624 48.5887 178.655 48.0101 178.794C47.4256 178.922 46.8861 179.137 46.3917 179.436C45.8683 179.753 45.4171 180.146 45.0381 180.614C44.6532 181.072 44.3686 181.576 44.1843 182.125C43.9845 182.67 43.9101 183.225 43.961 183.79C43.9964 184.352 44.1727 184.894 44.4897 185.418C44.8244 185.97 45.2402 186.394 45.7371 186.69C46.2243 186.991 46.7557 187.179 47.3313 187.254C47.9011 187.32 48.4782 187.288 49.0627 187.16C49.6375 187.037 50.177 186.823 50.681 186.517Z" fill="#282828"/>
<path d="M45.4809 166.79L46.7171 166.223L50.1327 173.671L39.1614 178.703L35.8095 171.394L37.0457 170.827L39.7598 176.745L43.3139 175.115L40.9542 169.969L42.1131 169.438L44.4728 174.584L48.2587 172.848L45.4809 166.79Z" fill="#282828"/>
<path d="M46.2987 165.196L34.8466 169.009L34.3634 167.557L39.3152 165.909L38.8051 164.376L32.5968 162.25L32.0384 160.573L39.0045 162.984L43.3938 156.47L43.9845 158.244L40.117 163.904L40.6378 165.468L45.8155 163.745L46.2987 165.196Z" fill="#282828"/>
<path d="M30.8562 149.323L31.7456 153.392L42.2086 151.105L42.5353 152.599L32.0723 154.886L32.9617 158.955L31.6331 159.246L29.5276 149.613L30.8562 149.323Z" fill="#282828"/>
<path d="M36.7709 142.388L35.4149 142.493L35.0284 137.493L36.3844 137.388L36.7709 142.388Z" fill="#282828"/>
<path d="M28.7361 120.183L40.7737 121.067L40.6616 122.593L35.1854 122.191L34.6986 128.82L40.1749 129.222L40.0629 130.748L28.0253 129.864L28.1373 128.338L33.3423 128.721L33.829 122.091L28.624 121.709L28.7361 120.183Z" fill="#282828"/>
<path d="M29.8824 113.023L30.1293 111.755L42.919 109.223L42.6071 110.825L38.8634 111.551L37.8952 116.523L41.0964 118.584L40.7845 120.186L29.8824 113.023ZM37.6303 111.657L31.7412 112.727L36.7856 115.995L37.6303 111.657Z" fill="#282828"/>
<path d="M45.0729 102.449L40.2588 100.927C40.2804 101.159 40.2953 101.432 40.3037 101.743C40.3122 102.055 40.2907 102.405 40.2393 102.793C40.1806 103.166 40.0829 103.569 39.9462 104.002C39.543 105.277 38.9631 106.133 38.2064 106.572C37.4389 107.006 36.4338 107.027 35.1911 106.634L31.4631 105.456L31.909 104.045L35.475 105.173C36.307 105.436 36.9808 105.429 37.4962 105.152C38.0043 104.861 38.4035 104.257 38.694 103.338C38.8443 102.863 38.9424 102.365 38.9881 101.844C39.0372 101.313 39.0285 100.871 38.9621 100.517L33.5646 98.8099L34.0156 97.3835L45.5239 101.023L45.0729 102.449Z" fill="#282828"/>
<path d="M36.6752 90.7886L37.2006 89.6083L50.2323 90.0128L49.5686 91.5037L45.7575 91.3704L43.6974 95.9985L46.354 98.7256L45.6903 100.217L36.6752 90.7886ZM44.5321 91.197L38.5531 90.9174L42.7346 95.2351L44.5321 91.197Z" fill="#282828"/>
<path d="M45.582 76.7814L43.4901 80.383L52.7511 85.7622L51.9826 87.0853L42.7216 81.706L40.6296 85.3075L39.4536 84.6244L44.406 76.0983L45.582 76.7814Z" fill="#282828"/>
<path d="M55.1181 81.7352L45.3833 74.5994L46.2878 73.3654L49.9761 76.069L51.6846 73.7381C52.2073 73.0251 52.7708 72.5248 53.3751 72.2371C53.9703 71.9427 54.5835 71.8442 55.2148 71.9415C55.8436 72.023 56.4596 72.2849 57.0629 72.7271C57.6296 73.1425 58.059 73.6399 58.3509 74.2193C58.6337 74.792 58.7368 75.4085 58.6602 76.069C58.5836 76.7295 58.294 77.4025 57.7915 78.088L55.1181 81.7352ZM54.9943 79.7474L56.6425 77.4988C56.9977 77.0143 57.1944 76.5543 57.2327 76.1187C57.2618 75.6763 57.1758 75.276 56.9747 74.9178C56.7644 74.5529 56.4856 74.2431 56.1383 73.9885C55.7909 73.7339 55.4195 73.56 55.0241 73.4669C54.6353 73.3646 54.239 73.3973 53.8351 73.5649C53.422 73.7259 53.0245 74.0668 52.6426 74.5878L51.0044 76.8227L54.9943 79.7474Z" fill="#282828"/>
<path d="M63.7174 70.5668L55.2449 61.9703L61.88 55.4309L70.3525 64.0275L69.2628 65.1015L61.7449 57.4735L57.2892 61.8649L64.8071 69.4929L63.7174 70.5668Z" fill="#282828"/>
<path d="M71.7921 62.7076L64.3752 53.1852L68.3451 50.0931C68.7654 49.7658 69.2195 49.5558 69.7075 49.463C70.1885 49.3613 70.6736 49.357 71.1627 49.4501C71.6448 49.5342 72.1002 49.7039 72.5288 49.9591C72.9504 50.2053 73.3075 50.5162 73.6 50.8917C74.0039 51.4103 74.2742 51.997 74.4108 52.652C74.5404 53.298 74.5101 53.9322 74.3197 54.5546C74.1223 55.168 73.7419 55.6941 73.1786 56.1328L70.3353 58.3474L72.9991 61.7674L71.7921 62.7076ZM69.4996 57.2745L72.2759 55.1121C72.6067 54.8544 72.8232 54.5422 72.9253 54.1753C73.0364 53.8015 73.0406 53.4104 72.9379 53.0019C72.8442 52.5865 72.6581 52.1999 72.3795 51.8423C72.087 51.4668 71.7454 51.1941 71.3546 51.0244C70.9569 50.8458 70.5622 50.7725 70.1706 50.8046C69.779 50.8367 69.4267 50.9746 69.1138 51.2183L66.418 53.318L69.4996 57.2745Z" fill="#282828"/>
<path d="M83.9724 54.0368C83.2438 54.4745 82.4956 54.7257 81.7279 54.7902C80.9602 54.8548 80.209 54.7706 79.4741 54.5377C78.7432 54.2893 78.0744 53.9243 77.4677 53.4426C76.8552 52.9512 76.3505 52.3751 75.9537 51.7145C75.5393 51.0247 75.2668 50.296 75.1362 49.5283C75.0094 48.7451 75.0188 47.9793 75.1641 47.2309C75.3134 46.467 75.5997 45.7661 76.0231 45.1284C76.4407 44.4809 76.9992 43.9471 77.6987 43.5269C78.4273 43.0892 79.1784 42.843 79.9519 42.7881C80.7255 42.7333 81.4777 42.8301 82.2087 43.0785C82.9396 43.3269 83.6084 43.692 84.2151 44.1737C84.8218 44.6554 85.3206 45.2217 85.7116 45.8726C86.126 46.5624 86.4014 47.296 86.5379 48.0733C86.6685 48.841 86.6592 49.6068 86.5099 50.3708C86.3645 51.1191 86.0801 51.8122 85.6568 52.4499C85.2334 53.0877 84.6719 53.6166 83.9724 54.0368ZM77.2798 50.9179C77.5949 51.4425 77.9839 51.9029 78.4467 52.2992C78.9134 52.6799 79.416 52.9663 79.9545 53.1585C80.493 53.3506 81.0479 53.4271 81.6193 53.3879C82.1907 53.3488 82.7436 53.1687 83.2779 52.8477C83.8317 52.515 84.2572 52.1008 84.5543 51.605C84.8514 51.1092 85.0338 50.5766 85.1015 50.0071C85.179 49.4317 85.1495 48.8545 85.0132 48.2753C84.8865 47.6903 84.6744 47.1501 84.3767 46.6546C84.0616 46.13 83.6707 45.6774 83.204 45.2966C82.7471 44.9101 82.2445 44.6237 81.6963 44.4374C81.1519 44.2355 80.597 44.159 80.0314 44.2079C79.4697 44.2413 78.9265 44.4155 78.4019 44.7306C77.8482 45.0633 77.4227 45.4775 77.1256 45.9733C76.8226 46.4594 76.6324 46.9901 76.555 47.5655C76.4873 48.135 76.5167 48.7122 76.6434 49.2972C76.7642 49.8725 76.9763 50.4127 77.2798 50.9179Z" fill="#282828"/>
<path d="M97.4118 45.5972L97.9695 46.8376L90.4961 50.1976L85.5467 39.1891L92.8805 35.8918L93.4382 37.1322L87.4998 39.8021L89.1031 43.3683L94.2663 41.0469L94.7891 42.2098L89.626 44.5311L91.3339 48.3298L97.4118 45.5972Z" fill="#282828"/>
<path d="M98.4688 46.5982L94.6996 35.1318L96.1531 34.6541L97.7828 39.6121L99.3171 39.1077L101.466 32.9075L103.146 32.3554L100.709 39.3124L107.206 43.7262L105.429 44.3102L99.7847 40.4214L98.2182 40.9363L99.9222 46.1205L98.4688 46.5982Z" fill="#282828"/>
<path d="M114.982 31.0654L110.907 31.9237L113.114 42.4038L111.617 42.7191L109.409 32.239L105.334 33.0974L105.054 31.7666L114.702 29.7346L114.982 31.0654Z" fill="#282828"/>
<path d="M121.527 37.0403L121.428 35.6839L126.429 35.3167L126.529 36.673L121.527 37.0403Z" fill="#282828"/>
<path d="M143.75 29.061L142.819 41.0951L141.294 40.9772L141.717 35.5025L135.09 34.9902L134.667 40.4649L133.141 40.347L134.071 28.3129L135.597 28.4308L135.195 33.6343L141.822 34.1466L142.224 28.9431L143.75 29.061Z" fill="#282828"/>
<path d="M151.528 30.3328L152.794 30.5894L155.228 43.3981L153.629 43.074L152.932 39.3248L147.967 38.3187L145.881 41.504L144.282 41.1799L151.528 30.3328ZM152.835 38.091L151.81 32.1939L148.503 37.2132L152.835 38.091Z" fill="#282828"/>
<path d="M161.41 45.4157L162.95 40.6074C162.718 40.628 162.445 40.642 162.134 40.6492C161.822 40.6564 161.472 40.6337 161.085 40.5808C160.711 40.5207 160.308 40.4215 159.877 40.2832C158.603 39.8751 157.749 39.292 157.313 38.5336C156.881 37.7645 156.864 36.7594 157.262 35.5182L158.455 31.7946L159.863 32.2458L158.722 35.8075C158.456 36.6386 158.46 37.3123 158.735 37.8288C159.024 38.338 159.628 38.7395 160.545 39.0334C161.02 39.1856 161.517 39.2855 162.038 39.3331C162.569 39.3843 163.011 39.3773 163.365 39.3122L165.093 33.9211L166.517 34.3776L162.835 45.8721L161.41 45.4157Z" fill="#282828"/>
<path d="M173.13 37.0479L174.308 37.5777L173.855 50.6079L172.367 49.9386L172.514 46.128L167.894 44.0506L165.157 46.6971L163.668 46.0279L173.13 37.0479ZM172.692 44.9033L172.994 38.9253L168.661 43.0908L172.692 44.9033Z" fill="#282828"/>
<path d="M187.134 45.999L183.54 43.8938L178.127 53.135L176.807 52.3617L182.22 43.1205L178.626 41.0153L179.314 39.8418L187.821 44.8255L187.134 45.999Z" fill="#282828"/>
<path d="M182.16 55.5096L189.331 45.8009L190.562 46.71L187.845 50.3883L190.17 52.1054C190.881 52.6306 191.379 53.1959 191.664 53.8013C191.957 54.3976 192.053 55.0112 191.953 55.642C191.869 56.2705 191.605 56.8856 191.161 57.4873C190.743 58.0525 190.244 58.48 189.664 58.7698C189.09 59.0506 188.473 59.1514 187.813 59.0724C187.153 58.9933 186.481 58.7013 185.797 58.1963L182.16 55.5096ZM184.148 55.393L186.391 57.0495C186.874 57.4064 187.333 57.6048 187.769 57.6447C188.211 57.6754 188.612 57.5909 188.971 57.3911C189.336 57.1821 189.647 56.9044 189.903 56.558C190.159 56.2116 190.334 55.8409 190.429 55.4458C190.532 55.0574 190.501 54.6609 190.335 54.2564C190.175 53.8428 189.836 53.444 189.316 53.0602L187.087 51.4139L184.148 55.393Z" fill="#282828"/>
<path d="M193.788 64.5909L202.446 56.181L208.937 62.8635L200.279 71.2733L199.213 70.1758L206.895 62.7136L202.536 58.2261L194.854 65.6883L193.788 64.5909Z" fill="#282828"/>
<path d="M201.588 72.7531L211.164 65.4059L214.227 69.3982C214.551 69.8208 214.758 70.2765 214.847 70.7651C214.945 71.2469 214.946 71.732 214.849 72.2204C214.762 72.7019 214.589 73.156 214.331 73.5827C214.081 74.0026 213.768 74.3573 213.39 74.6471C212.869 75.0472 212.28 75.3132 211.624 75.4451C210.977 75.57 210.343 75.535 209.722 75.34C209.11 75.1382 208.587 74.754 208.152 74.1875L205.958 71.3282L202.519 73.9669L201.588 72.7531ZM207.037 70.5003L209.179 73.2923C209.435 73.625 209.745 73.8437 210.111 73.9485C210.484 74.0623 210.876 74.0694 211.285 73.9697C211.701 73.879 212.089 73.6957 212.448 73.4197C212.826 73.13 213.101 72.7903 213.274 72.4008C213.455 72.0044 213.531 71.6103 213.502 71.2185C213.473 70.8266 213.338 70.4733 213.096 70.1586L211.016 67.4476L207.037 70.5003Z" fill="#282828"/>
<path d="M210.157 85.0294C209.725 84.2976 209.479 83.5476 209.421 82.7794C209.362 82.0112 209.451 81.2606 209.69 80.5275C209.943 79.7984 210.313 79.1323 210.8 78.5292C211.295 77.9203 211.875 77.4199 212.539 77.0279C213.232 76.6187 213.962 76.3515 214.731 76.2266C215.515 76.1056 216.281 76.1205 217.028 76.2714C217.791 76.4263 218.49 76.7178 219.124 77.1458C219.768 77.5681 220.298 78.1306 220.713 78.8331C221.146 79.565 221.386 80.3179 221.435 81.0918C221.485 81.8657 221.382 82.6172 221.128 83.3463C220.875 84.0754 220.505 84.7415 220.019 85.3446C219.532 85.9477 218.962 86.4424 218.309 86.8286C217.616 87.2379 216.88 87.5079 216.102 87.6386C215.333 87.7636 214.568 87.7487 213.805 87.5938C213.057 87.4429 212.366 87.1534 211.732 86.7253C211.097 86.2973 210.572 85.732 210.157 85.0294ZM213.326 78.3599C212.799 78.6712 212.335 79.0567 211.936 79.5166C211.552 79.9805 211.261 80.4809 211.065 81.018C210.869 81.5551 210.789 82.1094 210.824 82.6811C210.859 83.2528 211.035 83.807 211.352 84.3437C211.68 84.8999 212.091 85.3283 212.585 85.6291C213.078 85.9299 213.61 86.1162 214.179 86.1881C214.754 86.2698 215.331 86.2446 215.911 86.1125C216.497 85.9902 217.039 85.782 217.536 85.488C218.063 85.1767 218.519 84.7892 218.903 84.3253C219.293 83.8712 219.583 83.3707 219.773 82.8239C219.979 82.2811 220.06 81.7267 220.015 81.1608C219.986 80.5989 219.816 80.0544 219.504 79.5275C219.176 78.9713 218.765 78.5428 218.271 78.2421C217.787 77.9356 217.258 77.7415 216.683 77.6598C216.114 77.5879 215.537 77.6131 214.951 77.7354C214.375 77.852 213.833 78.0601 213.326 78.3599Z" fill="#282828"/>
<path d="M218.254 98.0017L217.012 98.5548L213.679 91.0689L224.706 86.1605L227.976 93.5066L226.734 94.0596L224.086 88.1113L220.514 89.7014L222.816 94.8731L221.651 95.3916L219.349 90.2199L215.544 91.9136L218.254 98.0017Z" fill="#282828"/>
<path d="M217.479 99.7011L228.974 96.0185L229.44 97.4756L224.47 99.0679L224.963 100.606L231.147 102.802L231.686 104.486L224.748 101.996L220.285 108.46L219.715 106.679L223.646 101.064L223.143 99.4932L217.946 101.158L217.479 99.7011Z" fill="#282828"/>
<path d="M232.744 115.724L231.901 111.645L221.413 113.813L221.103 112.314L231.592 110.147L230.749 106.068L232.081 105.793L234.076 115.449L232.744 115.724Z" fill="#282828"/>
<path d="M226.745 122.356L228.102 122.262L228.45 127.265L227.093 127.359L226.745 122.356Z" fill="#282828"/>
<g clip-path="url(#clip0_913_34241)">
<path d="M153.238 106.322C152.803 105.888 152.214 105.643 151.599 105.643C150.985 105.643 150.395 105.888 149.96 106.322C149.526 106.757 149.282 107.346 149.282 107.961C149.282 108.576 149.526 109.165 149.96 109.6L170.259 129.898L88.0112 129.898C87.3964 129.898 86.8068 130.143 86.3721 130.577C85.9374 131.012 85.6932 131.602 85.6932 132.216C85.6932 132.831 85.9374 133.421 86.3721 133.856C86.8068 134.29 87.3964 134.534 88.0112 134.534L170.259 134.534L149.96 154.833C149.526 155.267 149.282 155.857 149.282 156.472C149.282 157.086 149.526 157.676 149.96 158.111C150.395 158.545 150.985 158.789 151.599 158.789C152.214 158.789 152.803 158.545 153.238 158.111L177.493 133.855C178.398 132.951 178.398 131.482 177.493 130.578L153.238 106.322Z" fill="#282828"/>
</g>
</g>
<defs>
<filter id="filter0_dd_913_34241" x="0" y="0.283203" width="263.444" height="263.432" filterUnits="userSpaceOnUse" color-interpolation-filters="sRGB">
<feFlood flood-opacity="0" result="BackgroundImageFix"/>
<feColorMatrix in="SourceAlpha" type="matrix" values="0 0 0 0 0 0 0 0 0 0 0 0 0 0 0 0 0 0 127 0" result="hardAlpha"/>
<feOffset dx="4" dy="4"/>
<feGaussianBlur stdDeviation="10"/>
<feComposite in2="hardAlpha" operator="out"/>
<feColorMatrix type="matrix" values="0 0 0 0 0.0862745 0 0 0 0 0.0862745 0 0 0 0 0.0862745 0 0 0 0.2 0"/>
<feBlend mode="normal" in2="BackgroundImageFix" result="effect1_dropShadow_913_34241"/>
<feColorMatrix in="SourceAlpha" type="matrix" values="0 0 0 0 0 0 0 0 0 0 0 0 0 0 0 0 0 0 127 0" result="hardAlpha"/>
<feOffset dx="-4" dy="-4"/>
<feGaussianBlur stdDeviation="10"/>
<feComposite in2="hardAlpha" operator="out"/>
<feColorMatrix type="matrix" values="0 0 0 0 0.0875 0 0 0 0 0.0875 0 0 0 0 0.0875 0 0 0 0.2 0"/>
<feBlend mode="normal" in2="effect1_dropShadow_913_34241" result="effect2_dropShadow_913_34241"/>
<feBlend mode="normal" in="SourceGraphic" in2="effect2_dropShadow_913_34241" result="shape"/>
</filter>
<clipPath id="clip0_913_34241">
<rect width="89" height="89" fill="white" transform="translate(131.933 195.148) rotate(-135)"/>
</clipPath>
</defs>
</svg>
