<svg width="216" height="216" viewBox="0 0 216 216" fill="none" xmlns="http://www.w3.org/2000/svg">
<path d="M210.833 118.544L198.786 117.8L198.88 116.273L204.361 116.611L204.771 109.977L199.29 109.638L199.385 108.111L211.432 108.856L211.337 110.383L206.128 110.061L205.718 116.695L210.927 117.017L210.833 118.544Z" fill="#282828"/>
<path d="M209.688 126.168L209.45 127.438L196.68 130.068L196.98 128.463L200.718 127.709L201.648 122.729L198.431 120.693L198.731 119.089L209.688 126.168ZM201.95 127.593L207.831 126.478L202.762 123.248L201.95 127.593Z" fill="#282828"/>
<path d="M194.66 136.591L199.491 138.059C199.467 137.826 199.449 137.554 199.437 137.243C199.425 136.931 199.442 136.581 199.489 136.192C199.544 135.818 199.637 135.414 199.769 134.98C200.158 133.701 200.728 132.838 201.479 132.391C202.242 131.947 203.247 131.915 204.494 132.294L208.235 133.43L207.805 134.845L204.226 133.758C203.391 133.505 202.718 133.519 202.206 133.802C201.701 134.099 201.308 134.708 201.028 135.63C200.884 136.107 200.791 136.606 200.751 137.127C200.708 137.658 200.722 138.101 200.792 138.454L206.209 140.099L205.774 141.531L194.225 138.022L194.66 136.591Z" fill="#282828"/>
<path d="M203.164 148.185L202.652 149.371L189.617 149.112L190.264 147.614L194.076 147.704L196.084 143.053L193.397 140.356L194.044 138.858L203.164 148.185ZM195.303 147.864L201.285 148.077L197.055 143.806L195.303 147.864Z" fill="#282828"/>
<path d="M194.389 162.307L196.441 158.683L187.121 153.406L187.874 152.075L197.194 157.351L199.246 153.727L200.43 154.397L195.572 162.977L194.389 162.307Z" fill="#282828"/>
<path d="M184.729 157.525L194.542 164.554L193.651 165.798L189.933 163.135L188.25 165.484C187.735 166.203 187.177 166.709 186.576 167.004C185.984 167.305 185.372 167.41 184.74 167.319C184.11 167.245 183.491 166.99 182.883 166.554C182.312 166.145 181.877 165.652 181.579 165.076C181.29 164.507 181.18 163.891 181.25 163.23C181.319 162.569 181.601 161.892 182.096 161.201L184.729 157.525ZM184.875 159.512L183.251 161.778C182.902 162.266 182.71 162.729 182.676 163.165C182.652 163.607 182.743 164.007 182.948 164.363C183.162 164.725 183.444 165.032 183.794 165.283C184.144 165.533 184.518 165.703 184.914 165.792C185.304 165.89 185.7 165.853 186.102 165.681C186.513 165.515 186.907 165.17 187.283 164.645L188.897 162.392L184.875 159.512Z" fill="#282828"/>
<path d="M175.965 169.048L184.5 177.582L177.913 184.17L169.378 175.635L170.46 174.553L178.033 182.126L182.457 177.703L174.883 170.13L175.965 169.048Z" fill="#282828"/>
<path d="M168.016 176.848L175.536 186.289L171.6 189.424C171.184 189.756 170.732 189.971 170.245 190.069C169.765 190.176 169.28 190.186 168.79 190.098C168.307 190.019 167.85 189.855 167.419 189.604C166.994 189.363 166.634 189.056 166.337 188.683C165.928 188.169 165.651 187.585 165.507 186.932C165.37 186.287 165.394 185.653 165.578 185.029C165.768 184.413 166.143 183.883 166.701 183.438L169.52 181.192L166.819 177.802L168.016 176.848ZM170.368 182.256L167.615 184.449C167.287 184.71 167.074 185.025 166.976 185.393C166.869 185.768 166.869 186.159 166.976 186.566C167.074 186.98 167.265 187.365 167.547 187.719C167.844 188.092 168.188 188.361 168.581 188.526C168.981 188.7 169.376 188.769 169.767 188.733C170.159 188.697 170.509 188.555 170.82 188.308L173.492 186.179L170.368 182.256Z" fill="#282828"/>
<path d="M155.875 185.613C156.599 185.167 157.344 184.908 158.111 184.835C158.878 184.762 159.63 184.838 160.368 185.062C161.101 185.303 161.774 185.66 162.386 186.135C163.004 186.62 163.515 187.19 163.919 187.847C164.341 188.532 164.622 189.258 164.761 190.024C164.896 190.805 164.895 191.571 164.758 192.321C164.617 193.087 164.339 193.791 163.922 194.433C163.512 195.085 162.959 195.625 162.265 196.053C161.541 196.499 160.792 196.753 160.02 196.817C159.247 196.88 158.493 196.791 157.76 196.551C157.026 196.311 156.353 195.953 155.741 195.478C155.129 195.003 154.624 194.442 154.226 193.796C153.804 193.111 153.521 192.38 153.376 191.604C153.237 190.838 153.238 190.072 153.378 189.307C153.515 188.557 153.792 187.861 154.209 187.218C154.625 186.576 155.18 186.041 155.875 185.613ZM162.602 188.658C162.281 188.137 161.887 187.681 161.42 187.289C160.949 186.914 160.443 186.633 159.903 186.447C159.362 186.261 158.806 186.19 158.235 186.236C157.664 186.281 157.114 186.467 156.583 186.794C156.033 187.133 155.612 187.552 155.32 188.051C155.029 188.55 154.852 189.085 154.791 189.655C154.72 190.231 154.755 190.808 154.898 191.386C155.031 191.969 155.249 192.507 155.552 192.999C155.873 193.52 156.269 193.969 156.74 194.344C157.201 194.726 157.707 195.006 158.257 195.187C158.804 195.383 159.359 195.453 159.924 195.398C160.486 195.358 161.027 195.178 161.548 194.857C162.098 194.518 162.519 194.099 162.811 193.6C163.108 193.111 163.292 192.578 163.364 192.002C163.425 191.432 163.389 190.855 163.256 190.271C163.129 189.698 162.911 189.16 162.602 188.658Z" fill="#282828"/>
<path d="M142.789 194.014L142.217 192.78L149.653 189.336L154.725 200.289L147.428 203.668L146.857 202.434L152.765 199.698L151.122 196.15L145.985 198.529L145.449 197.372L150.586 194.993L148.836 191.213L142.789 194.014Z" fill="#282828"/>
<path d="M141.209 193.192L145.065 204.63L143.615 205.119L141.948 200.173L140.417 200.689L138.315 206.905L136.64 207.47L139.024 200.495L132.494 196.13L134.266 195.533L139.94 199.379L141.503 198.852L139.759 193.681L141.209 193.192Z" fill="#282828"/>
<path d="M125.243 208.727L129.308 207.822L126.982 197.368L128.475 197.035L130.802 207.489L134.867 206.584L135.163 207.912L125.538 210.054L125.243 208.727Z" fill="#282828"/>
<path d="M118.478 202.788L118.593 204.143L113.596 204.568L113.481 203.213L118.478 202.788Z" fill="#282828"/>
<path d="M96.3014 210.939L97.0925 198.895L98.6192 198.995L98.2593 204.475L104.892 204.91L105.252 199.431L106.779 199.531L105.988 211.575L104.461 211.475L104.803 206.267L98.1702 205.832L97.8281 211.039L96.3014 210.939Z" fill="#282828"/>
<path d="M88.9092 209.761L87.64 209.519L85.0588 196.739L86.6619 197.044L87.4021 200.785L92.3784 201.735L94.4269 198.526L96.03 198.831L88.9092 209.761ZM87.5131 202.018L88.6058 207.903L91.8548 202.846L87.5131 202.018Z" fill="#282828"/>
<path d="M78.4131 194.637L76.9272 199.462C77.1597 199.439 77.4318 199.422 77.7434 199.411C78.0551 199.4 78.405 199.419 78.7933 199.467C79.1674 199.523 79.5711 199.618 80.0044 199.751C81.2825 200.145 82.1435 200.718 82.5875 201.472C83.0281 202.236 83.0566 203.241 82.673 204.486L81.5224 208.223L80.1089 207.788L81.2095 204.214C81.4663 203.38 81.4544 202.706 81.1737 202.193C80.8788 201.687 80.2711 201.292 79.3504 201.009C78.8738 200.862 78.3751 200.768 77.8544 200.726C77.3228 200.681 76.8803 200.693 76.527 200.762L74.861 206.172L73.4313 205.732L76.9834 194.196L78.4131 194.637Z" fill="#282828"/>
<path d="M66.848 203.088L65.6638 202.571L65.9711 189.537L67.4669 190.189L67.362 194.001L72.0054 196.027L74.7125 193.35L76.2084 194.003L66.848 203.088ZM67.1978 195.228L66.9628 201.209L71.2491 196.995L67.1978 195.228Z" fill="#282828"/>
<path d="M52.8099 194.258L56.4268 196.323L61.7377 187.023L63.0663 187.782L57.7554 197.082L61.3723 199.147L60.6979 200.328L52.1355 195.439L52.8099 194.258Z" fill="#282828"/>
<path d="M57.638 184.619L50.5378 194.38L49.3005 193.48L51.9906 189.782L49.6535 188.082C48.9386 187.562 48.4362 187 48.1463 186.397C47.8498 185.803 47.749 185.19 47.844 184.558C47.9233 183.929 48.1829 183.312 48.6229 182.707C49.0362 182.139 49.5321 181.708 50.1104 181.414C50.682 181.129 51.2982 181.023 51.9589 181.098C52.6197 181.172 53.2938 181.459 53.9811 181.959L57.638 184.619ZM55.6507 184.75L53.3961 183.11C52.9103 182.757 52.4496 182.562 52.0138 182.525C51.5713 182.497 51.1714 182.585 50.8139 182.787C50.4497 182.999 50.141 183.279 49.8877 183.627C49.6343 183.975 49.4618 184.347 49.3701 184.743C49.2693 185.132 49.3034 185.529 49.4725 185.932C49.6349 186.344 49.9774 186.741 50.4998 187.121L52.7406 188.751L55.6507 184.75Z" fill="#282828"/>
<path d="M46.2429 175.84L37.6772 184.344L31.1138 177.733L39.6795 169.229L40.7574 170.315L33.1569 177.86L37.5644 182.3L45.165 174.755L46.2429 175.84Z" fill="#282828"/>
<path d="M38.4546 167.851L28.9594 175.302L25.8528 171.343C25.524 170.924 25.3123 170.471 25.2177 169.983C25.1143 169.503 25.1082 169.018 25.1995 168.528C25.2819 168.046 25.4499 167.59 25.7035 167.16C25.9482 166.738 26.2578 166.38 26.6322 166.086C27.1493 165.68 27.7351 165.408 28.3896 165.268C29.0351 165.136 29.6694 165.165 30.2925 165.353C30.9066 165.548 31.4341 165.926 31.8749 166.488L34.0998 169.323L37.5101 166.647L38.4546 167.851ZM33.0299 170.163L30.8574 167.394C30.5986 167.065 30.2855 166.849 29.9183 166.748C29.5441 166.639 29.1529 166.636 28.7448 166.74C28.3297 166.835 27.9439 167.023 27.5873 167.303C27.2128 167.597 26.9414 167.939 26.7731 168.331C26.596 168.729 26.5241 169.124 26.5576 169.515C26.5911 169.907 26.7303 170.259 26.9752 170.571L29.0847 173.259L33.0299 170.163Z" fill="#282828"/>
<path d="M29.7754 155.69C30.2158 156.417 30.4696 157.164 30.537 157.932C30.6044 158.699 30.523 159.451 30.2928 160.186C30.0471 160.918 29.6845 161.588 29.205 162.197C28.7159 162.811 28.1417 163.318 27.4825 163.717C26.7943 164.134 26.0666 164.409 25.2994 164.543C24.5166 164.672 23.7508 164.666 23.0019 164.523C22.2374 164.377 21.5355 164.093 20.8962 163.672C20.2472 163.257 19.7114 162.7 19.2886 162.002C18.8482 161.275 18.5992 160.525 18.5415 159.752C18.4839 158.978 18.5779 158.226 18.8236 157.494C19.0693 156.762 19.4319 156.092 19.9114 155.483C20.3908 154.875 20.9553 154.374 21.6048 153.981C22.293 153.564 23.0256 153.286 23.8025 153.146C24.5697 153.013 25.3355 153.019 26.1 153.166C26.8489 153.309 27.543 153.59 28.1823 154.011C28.8216 154.432 29.3526 154.992 29.7754 155.69ZM26.681 162.394C27.2045 162.077 27.6635 161.686 28.0581 161.222C28.4371 160.754 28.7216 160.25 28.9118 159.711C29.102 159.172 29.1764 158.617 29.1351 158.045C29.0938 157.474 28.9117 156.922 28.5888 156.389C28.2541 155.836 27.8383 155.412 27.3414 155.117C26.8446 154.822 26.3112 154.641 25.7415 154.576C25.1658 154.5 24.5887 154.532 24.0101 154.67C23.4256 154.799 22.8861 155.013 22.3917 155.313C21.8683 155.63 21.4171 156.022 21.0381 156.49C20.6532 156.949 20.3686 157.452 20.1843 158.001C19.9845 158.546 19.9101 159.102 19.961 159.667C19.9964 160.229 20.1727 160.771 20.4897 161.295C20.8244 161.847 21.2402 162.271 21.7371 162.566C22.2243 162.867 22.7557 163.056 23.3313 163.131C23.9011 163.197 24.4782 163.165 25.0627 163.036C25.6375 162.913 26.177 162.699 26.681 162.394Z" fill="#282828"/>
<path d="M21.4809 142.667L22.7171 142.1L26.1327 149.548L15.1614 154.579L11.8095 147.27L13.0457 146.703L15.7598 152.622L19.3139 150.992L16.9542 145.846L18.1131 145.315L20.4728 150.46L24.2587 148.724L21.4809 142.667Z" fill="#282828"/>
<path d="M22.2987 141.073L10.8466 144.885L10.3634 143.434L15.3152 141.785L14.8051 140.253L8.59678 138.127L8.03835 136.45L15.0045 138.861L19.3938 132.347L19.9845 134.121L16.117 139.78L16.6378 141.345L21.8155 139.621L22.2987 141.073Z" fill="#282828"/>
<path d="M6.85624 125.199L7.74563 129.268L18.2086 126.981L18.5353 128.476L8.07235 130.763L8.96174 134.832L7.63311 135.122L5.52761 125.49L6.85624 125.199Z" fill="#282828"/>
<path d="M12.7709 118.264L11.4149 118.369L11.0284 113.369L12.3844 113.264L12.7709 118.264Z" fill="#282828"/>
<path d="M4.73609 96.06L16.7737 96.9439L16.6616 98.4698L11.1854 98.0677L10.6986 104.697L16.1749 105.099L16.0629 106.625L4.02526 105.741L4.1373 104.215L9.34229 104.597L9.82904 97.9681L4.62405 97.5859L4.73609 96.06Z" fill="#282828"/>
<path d="M5.88236 88.9L6.12927 87.6318L18.919 85.0994L18.6071 86.7013L14.8634 87.4272L13.8952 92.3999L17.0964 94.4606L16.7845 96.0626L5.88236 88.9ZM13.6303 87.5336L7.74123 88.6038L12.7856 91.8721L13.6303 87.5336Z" fill="#282828"/>
<path d="M21.0729 78.3257L16.2588 76.8034C16.2804 77.0361 16.2953 77.3083 16.3037 77.62C16.3122 77.9317 16.2907 78.2815 16.2393 78.6694C16.1806 79.0431 16.0829 79.446 15.9462 79.8783C15.543 81.1534 14.9631 82.0101 14.2064 82.4483C13.4389 82.8831 12.4338 82.9041 11.1911 82.5111L7.46309 81.3323L7.90901 79.9221L11.475 81.0497C12.307 81.3128 12.9808 81.306 13.4962 81.0292C14.0043 80.7381 14.4035 80.1334 14.694 79.2149C14.8443 78.7394 14.9424 78.2414 14.9881 77.721C15.0372 77.1898 15.0285 76.7472 14.9621 76.3934L9.56456 74.6866L10.0156 73.2602L21.5239 76.8993L21.0729 78.3257Z" fill="#282828"/>
<path d="M12.6752 66.6653L13.2006 65.485L26.2323 65.8895L25.5686 67.3804L21.7575 67.2471L19.6974 71.8752L22.354 74.6023L21.6903 76.0932L12.6752 66.6653ZM20.5321 67.0737L14.5531 66.7941L18.7346 71.1118L20.5321 67.0737Z" fill="#282828"/>
<path d="M21.582 52.6581L19.4901 56.2597L28.7511 61.639L27.9826 62.962L18.7216 57.5827L16.6296 61.1842L15.4536 60.5011L20.406 51.9751L21.582 52.6581Z" fill="#282828"/>
<path d="M31.1181 57.6119L21.3833 50.4761L22.2878 49.2421L25.9761 51.9457L27.6846 49.6148C28.2073 48.9018 28.7708 48.4015 29.3751 48.1138C29.9703 47.8194 30.5835 47.7209 31.2148 47.8182C31.8436 47.8997 32.4596 48.1616 33.0629 48.6038C33.6296 49.0192 34.059 49.5166 34.3509 50.096C34.6337 50.6687 34.7368 51.2852 34.6602 51.9457C34.5836 52.6062 34.294 53.2792 33.7915 53.9648L31.1181 57.6119ZM30.9943 55.6241L32.6425 53.3755C32.9977 52.8911 33.1944 52.431 33.2327 51.9954C33.2618 51.553 33.1758 51.1527 32.9747 50.7945C32.7644 50.4296 32.4856 50.1198 32.1383 49.8652C31.7909 49.6106 31.4195 49.4367 31.0241 49.3436C30.6353 49.2413 30.239 49.274 29.8351 49.4416C29.422 49.6026 29.0245 49.9435 28.6426 50.4646L27.0044 52.6994L30.9943 55.6241Z" fill="#282828"/>
<path d="M39.7174 46.4436L31.2449 37.847L37.88 31.3076L46.3525 39.9042L45.2628 40.9782L37.7449 33.3502L33.2892 37.7416L40.8071 45.3696L39.7174 46.4436Z" fill="#282828"/>
<path d="M47.7921 38.5843L40.3752 29.0619L44.3451 25.9698C44.7654 25.6425 45.2195 25.4325 45.7075 25.3397C46.1885 25.238 46.6736 25.2337 47.1627 25.3268C47.6448 25.4109 48.1002 25.5806 48.5288 25.8358C48.9504 26.082 49.3075 26.3929 49.6 26.7684C50.0039 27.287 50.2742 27.8738 50.4108 28.5287C50.5404 29.1747 50.5101 29.8089 50.3197 30.4313C50.1223 31.0447 49.7419 31.5708 49.1786 32.0095L46.3353 34.2241L48.9991 37.6442L47.7921 38.5843ZM45.4996 33.1512L48.2759 30.9888C48.6067 30.7312 48.8232 30.4189 48.9253 30.052C49.0364 29.6782 49.0406 29.2871 48.9379 28.8786C48.8442 28.4632 48.6581 28.0766 48.3795 27.719C48.087 27.3435 47.7454 27.0709 47.3546 26.9011C46.9569 26.7225 46.5622 26.6492 46.1706 26.6813C45.779 26.7134 45.4267 26.8513 45.1138 27.095L42.418 29.1947L45.4996 33.1512Z" fill="#282828"/>
<path d="M59.9724 29.9136C59.2438 30.3513 58.4956 30.6024 57.7279 30.6669C56.9602 30.7315 56.209 30.6473 55.4741 30.4145C54.7432 30.1661 54.0744 29.801 53.4677 29.3193C52.8552 28.8279 52.3505 28.2518 51.9537 27.5912C51.5393 26.9014 51.2668 26.1727 51.1362 25.405C51.0094 24.6218 51.0188 23.856 51.1641 23.1076C51.3134 22.3437 51.5997 21.6428 52.0231 21.0051C52.4407 20.3576 52.9992 19.8238 53.6987 19.4036C54.4273 18.9659 55.1784 18.7197 55.9519 18.6648C56.7255 18.61 57.4777 18.7068 58.2087 18.9552C58.9396 19.2036 59.6084 19.5687 60.2151 20.0504C60.8218 20.5321 61.3206 21.0984 61.7116 21.7493C62.126 22.4391 62.4014 23.1727 62.5379 23.9501C62.6685 24.7177 62.6592 25.4835 62.5099 26.2475C62.3645 26.9959 62.0801 27.6889 61.6568 28.3267C61.2334 28.9644 60.6719 29.4934 59.9724 29.9136ZM53.2798 26.7946C53.5949 27.3192 53.9839 27.7796 54.4467 28.1759C54.9134 28.5566 55.416 28.843 55.9545 29.0352C56.493 29.2273 57.0479 29.3038 57.6193 29.2646C58.1907 29.2255 58.7436 29.0454 59.2779 28.7244C59.8317 28.3917 60.2572 27.9775 60.5543 27.4817C60.8514 26.986 61.0338 26.4533 61.1015 25.8838C61.179 25.3084 61.1495 24.7312 61.0132 24.152C60.8865 23.5671 60.6744 23.0268 60.3767 22.5314C60.0616 22.0067 59.6707 21.5541 59.204 21.1734C58.7471 20.7868 58.2445 20.5004 57.6963 20.3141C57.1519 20.1122 56.597 20.0357 56.0314 20.0846C55.4697 20.118 54.9265 20.2922 54.4019 20.6074C53.8482 20.94 53.4227 21.3542 53.1256 21.85C52.8226 22.3361 52.6324 22.8668 52.555 23.4422C52.4873 24.0117 52.5167 24.5889 52.6434 25.1739C52.7642 25.7492 52.9763 26.2894 53.2798 26.7946Z" fill="#282828"/>
<path d="M73.4118 21.4739L73.9695 22.7143L66.4961 26.0744L61.5467 15.0658L68.8805 11.7685L69.4382 13.0089L63.4998 15.6788L65.1031 19.245L70.2663 16.9236L70.7891 18.0865L65.626 20.4078L67.3339 24.2066L73.4118 21.4739Z" fill="#282828"/>
<path d="M74.4688 22.4749L70.6996 11.0085L72.1531 10.5308L73.7828 15.4888L75.3171 14.9844L77.4664 8.7842L79.146 8.2321L76.7086 15.1891L83.2058 19.6029L81.4293 20.1869L75.7847 16.2981L74.2182 16.8131L75.9222 21.9972L74.4688 22.4749Z" fill="#282828"/>
<path d="M90.9823 6.94211L86.9067 7.80044L89.1138 18.2806L87.6166 18.5959L85.4095 8.11574L81.3339 8.97407L81.0536 7.64326L90.702 5.61131L90.9823 6.94211Z" fill="#282828"/>
<path d="M97.5272 12.917L97.4276 11.5606L102.429 11.1934L102.529 12.5498L97.5272 12.917Z" fill="#282828"/>
<path d="M119.75 4.9377L118.819 16.9718L117.294 16.8539L117.717 11.3792L111.09 10.8669L110.667 16.3416L109.141 16.2237L110.071 4.18959L111.597 4.30751L111.195 9.51098L117.822 10.0233L118.224 4.81979L119.75 4.9377Z" fill="#282828"/>
<path d="M127.528 6.20953L128.794 6.46612L131.228 19.2748L129.629 18.9507L128.932 15.2015L123.967 14.1954L121.881 17.3807L120.282 17.0566L127.528 6.20953ZM128.835 13.9677L127.81 8.07061L124.503 13.0899L128.835 13.9677Z" fill="#282828"/>
<path d="M137.41 21.2924L138.95 16.4841C138.718 16.5047 138.445 16.5187 138.134 16.5259C137.822 16.5331 137.472 16.5104 137.085 16.4576C136.711 16.3974 136.308 16.2982 135.877 16.1599C134.603 15.7519 133.749 15.1687 133.313 14.4103C132.881 13.6412 132.864 12.6361 133.262 11.3949L134.455 7.67131L135.863 8.12255L134.722 11.6842C134.456 12.5153 134.46 13.1891 134.735 13.7055C135.024 14.2147 135.628 14.6162 136.545 14.9101C137.02 15.0623 137.517 15.1622 138.038 15.2099C138.569 15.261 139.011 15.254 139.365 15.1889L141.093 9.79785L142.517 10.2543L138.835 21.7488L137.41 21.2924Z" fill="#282828"/>
<path d="M149.13 12.9246L150.308 13.4544L149.855 26.4846L148.367 25.8153L148.514 22.0047L143.894 19.9274L141.157 22.5738L139.668 21.9046L149.13 12.9246ZM148.692 20.78L148.994 14.802L144.661 18.9675L148.692 20.78Z" fill="#282828"/>
<path d="M163.134 21.8757L159.54 19.7705L154.127 29.0117L152.807 28.2384L158.22 18.9972L154.626 16.892L155.314 15.7185L163.821 20.7022L163.134 21.8757Z" fill="#282828"/>
<path d="M158.16 31.3863L165.331 21.6776L166.562 22.5867L163.845 26.265L166.17 27.9821C166.881 28.5073 167.379 29.0726 167.664 29.678C167.957 30.2743 168.053 30.8879 167.953 31.5187C167.869 32.1472 167.605 32.7623 167.161 33.364C166.743 33.9292 166.244 34.3567 165.664 34.6465C165.09 34.9273 164.473 35.0281 163.813 34.9491C163.153 34.87 162.481 34.578 161.797 34.073L158.16 31.3863ZM160.148 31.2698L162.391 32.9262C162.874 33.2831 163.333 33.4815 163.769 33.5214C164.211 33.5521 164.612 33.4676 164.971 33.2678C165.336 33.0588 165.647 32.7812 165.903 32.4347C166.159 32.0883 166.334 31.7176 166.429 31.3225C166.532 30.9341 166.501 30.5377 166.335 30.1331C166.175 29.7195 165.836 29.3208 165.316 28.9369L163.087 27.2906L160.148 31.2698Z" fill="#282828"/>
<path d="M169.788 40.4676L178.446 32.0577L184.937 38.7402L176.279 47.15L175.213 46.0525L182.895 38.5903L178.536 34.1028L170.854 41.565L169.788 40.4676Z" fill="#282828"/>
<path d="M177.588 48.6298L187.164 41.2826L190.227 45.2749C190.551 45.6975 190.758 46.1532 190.847 46.6418C190.945 47.1236 190.946 47.6087 190.849 48.0971C190.762 48.5786 190.589 49.0327 190.331 49.4594C190.081 49.8793 189.768 50.234 189.39 50.5238C188.869 50.9239 188.28 51.1899 187.624 51.3218C186.977 51.4467 186.343 51.4117 185.722 51.2168C185.11 51.0149 184.587 50.6307 184.152 50.0643L181.958 47.2049L178.519 49.8437L177.588 48.6298ZM183.037 46.377L185.179 49.169C185.435 49.5017 185.745 49.7204 186.111 49.8252C186.484 49.939 186.876 49.9461 187.285 49.8464C187.701 49.7557 188.089 49.5724 188.448 49.2964C188.826 49.0067 189.101 48.667 189.274 48.2775C189.455 47.8811 189.531 47.487 189.502 47.0952C189.473 46.7033 189.338 46.3501 189.096 46.0353L187.016 43.3243L183.037 46.377Z" fill="#282828"/>
<path d="M186.157 60.9061C185.725 60.1743 185.479 59.4243 185.421 58.6561C185.362 57.8879 185.451 57.1373 185.69 56.4042C185.943 55.6751 186.313 55.009 186.8 54.4059C187.295 53.797 187.875 53.2966 188.539 52.9046C189.232 52.4954 189.962 52.2282 190.731 52.1033C191.515 51.9823 192.281 51.9972 193.028 52.1481C193.791 52.303 194.49 52.5945 195.124 53.0225C195.768 53.4448 196.298 54.0073 196.713 54.7098C197.146 55.4417 197.386 56.1946 197.435 56.9685C197.485 57.7424 197.382 58.4939 197.128 59.223C196.875 59.9521 196.505 60.6182 196.019 61.2213C195.532 61.8244 194.962 62.3191 194.309 62.7053C193.616 63.1146 192.88 63.3846 192.102 63.5153C191.333 63.6403 190.568 63.6254 189.805 63.4705C189.057 63.3196 188.366 63.0301 187.732 62.6021C187.097 62.174 186.572 61.6087 186.157 60.9061ZM189.326 54.2366C188.799 54.5479 188.335 54.9334 187.936 55.3933C187.552 55.8572 187.261 56.3576 187.065 56.8947C186.869 57.4318 186.789 57.9861 186.824 58.5578C186.859 59.1295 187.035 59.6837 187.352 60.2204C187.68 60.7766 188.091 61.2051 188.585 61.5058C189.078 61.8066 189.61 61.9929 190.179 62.0648C190.754 62.1465 191.331 62.1213 191.911 61.9892C192.497 61.8669 193.039 61.6587 193.536 61.3647C194.063 61.0534 194.519 60.6659 194.903 60.202C195.293 59.7479 195.583 59.2475 195.773 58.7006C195.979 58.1578 196.06 57.6034 196.015 57.0375C195.986 56.4756 195.816 55.9312 195.504 55.4042C195.176 54.848 194.765 54.4195 194.271 54.1188C193.787 53.8123 193.258 53.6182 192.683 53.5365C192.114 53.4646 191.537 53.4898 190.951 53.6121C190.375 53.7287 189.833 53.9368 189.326 54.2366Z" fill="#282828"/>
<path d="M194.254 73.8784L193.012 74.4315L189.679 66.9456L200.706 62.0372L203.976 69.3833L202.734 69.9363L200.086 63.988L196.514 65.5781L198.816 70.7499L197.651 71.2683L195.349 66.0966L191.544 67.7903L194.254 73.8784Z" fill="#282828"/>
<path d="M193.479 75.5778L204.974 71.8952L205.44 73.3523L200.47 74.9446L200.963 76.4826L207.147 78.6786L207.686 80.3623L200.748 77.8725L196.285 84.3363L195.715 82.5554L199.646 76.9403L199.143 75.3699L193.946 77.0348L193.479 75.5778Z" fill="#282828"/>
<path d="M208.744 91.601L207.901 87.5222L197.413 89.6893L197.103 88.1909L207.592 86.0238L206.749 81.945L208.081 81.6698L210.076 91.3258L208.744 91.601Z" fill="#282828"/>
<path d="M202.745 98.233L204.102 98.1386L204.45 103.142L203.093 103.236L202.745 98.233Z" fill="#282828"/>
</svg>
