<svg width="71" height="14" viewBox="0 0 71 14" fill="none" xmlns="http://www.w3.org/2000/svg">
<path d="M0 13.882V0.117977H5.57474C7.03526 0.117977 8.31321 0.412921 9.4086 1.00281C10.517 1.57959 11.3777 2.38577 11.9906 3.42135C12.6035 4.45693 12.9099 5.64981 12.9099 7C12.9099 8.35019 12.6035 9.54307 11.9906 10.5787C11.3777 11.6142 10.517 12.427 9.4086 13.0169C8.31321 13.5936 7.03526 13.882 5.57474 13.882H0ZM1.44748 12.6236H5.4965C6.70925 12.6236 7.759 12.3876 8.64574 11.9157C9.54552 11.4307 10.2432 10.7687 10.7387 9.92978C11.2342 9.07772 11.482 8.10112 11.482 7C11.482 5.88577 11.2342 4.90918 10.7387 4.07023C10.2432 3.23127 9.54552 2.57584 8.64574 2.10393C7.759 1.61891 6.70925 1.3764 5.4965 1.3764H1.44748V12.6236Z" fill="#767676"/>
<path d="M17.4513 6.27247H24.6887V7.51124H17.4513V6.27247ZM17.6078 12.6236H25.8428V13.882H16.1603V0.117977H25.5494V1.3764H17.6078V12.6236Z" fill="#767676"/>
<path d="M33.0204 14C32.0033 14 31.0252 13.8361 30.0863 13.5084C29.1605 13.1676 28.4432 12.735 27.9347 12.2107L28.5019 11.0899C28.9844 11.5618 29.6299 11.9616 30.4384 12.2893C31.26 12.6039 32.1206 12.7612 33.0204 12.7612C33.8811 12.7612 34.5787 12.6564 35.1134 12.4466C35.6611 12.2238 36.0588 11.9288 36.3066 11.5618C36.5674 11.1948 36.6978 10.7884 36.6978 10.3427C36.6978 9.80524 36.5413 9.37266 36.2283 9.04494C35.9284 8.71723 35.5307 8.46161 35.0351 8.27809C34.5396 8.08146 33.9919 7.91105 33.3921 7.76685C32.7922 7.62266 32.1923 7.47191 31.5925 7.31461C30.9926 7.1442 30.4384 6.92135 29.9298 6.64607C29.4343 6.37079 29.0301 6.0103 28.7171 5.56461C28.4172 5.10581 28.2672 4.50936 28.2672 3.77528C28.2672 3.09363 28.4432 2.47097 28.7953 1.9073C29.1605 1.33052 29.7147 0.871723 30.458 0.530899C31.2013 0.176967 32.1532 0 33.3138 0C34.0832 0 34.846 0.111423 35.6024 0.33427C36.3587 0.544007 37.0107 0.838951 37.5584 1.2191L37.0694 2.37921C36.4826 1.98596 35.8567 1.69757 35.1916 1.51405C34.5396 1.33053 33.9071 1.23876 33.2943 1.23876C32.4727 1.23876 31.7946 1.35019 31.26 1.57303C30.7253 1.79588 30.3276 2.09738 30.0668 2.47753C29.819 2.84457 29.6951 3.26405 29.6951 3.73596C29.6951 4.27341 29.8451 4.70599 30.145 5.03371C30.458 5.36142 30.8622 5.61704 31.3578 5.80056C31.8663 5.98408 32.4205 6.14794 33.0204 6.29214C33.6203 6.43633 34.2136 6.59363 34.8004 6.76405C35.4003 6.93446 35.948 7.1573 36.4435 7.43259C36.9521 7.69476 37.3563 8.04869 37.6562 8.49438C37.9692 8.94008 38.1257 9.52341 38.1257 10.2444C38.1257 10.9129 37.9431 11.5356 37.578 12.1124C37.2129 12.676 36.6521 13.1348 35.8958 13.4888C35.1525 13.8296 34.194 14 33.0204 14Z" fill="#767676"/>
<path d="M41.2795 13.882V0.117977H42.727V13.882H41.2795Z" fill="#767676"/>
<path d="M47.182 13.882V0.117977H52.3069C53.4675 0.117977 54.4651 0.308053 55.2997 0.688203C56.1342 1.05524 56.7732 1.5927 57.2166 2.30056C57.673 2.99532 57.9012 3.84083 57.9012 4.83708C57.9012 5.80712 57.673 6.64607 57.2166 7.35393C56.7732 8.04869 56.1342 8.58614 55.2997 8.96629C54.4651 9.33333 53.4675 9.51685 52.3069 9.51685H47.984L48.6295 8.84832V13.882H47.182ZM56.532 13.882L53.0111 8.88764H54.5759L58.1164 13.882H56.532ZM48.6295 8.96629L47.984 8.27809H52.2678C53.637 8.27809 54.6737 7.97659 55.3779 7.3736C56.0951 6.7706 56.4537 5.9251 56.4537 4.83708C56.4537 3.73596 56.0951 2.8839 55.3779 2.2809C54.6737 1.6779 53.637 1.3764 52.2678 1.3764H47.984L48.6295 0.688203V8.96629Z" fill="#767676"/>
<path d="M62.6086 6.27247H69.8459V7.51124H62.6086V6.27247ZM62.765 12.6236H71V13.882H61.3176V0.117977H70.7066V1.3764H62.765V12.6236Z" fill="#767676"/>
</svg>
