<svg width="166" height="33" viewBox="0 0 166 33" fill="none" xmlns="http://www.w3.org/2000/svg">
  <path d="M0 32.7219V0.278089H13.0339C16.4486 0.278089 19.4365 0.973315 21.9976 2.36376C24.5891 3.72332 26.6014 5.6236 28.0343 8.06461C29.4673 10.5056 30.1838 13.3174 30.1838 16.5C30.1838 19.6826 29.4673 22.4944 28.0343 24.9354C26.6014 27.3764 24.5891 29.2921 21.9976 30.6826C19.4365 32.0421 16.4486 32.7219 13.0339 32.7219H0ZM3.38424 29.7556H12.851C15.6864 29.7556 18.1408 29.1994 20.214 28.0871C22.3177 26.9438 23.9488 25.3834 25.1074 23.4059C26.266 21.3975 26.8453 19.0955 26.8453 16.5C26.8453 13.8736 26.266 11.5716 25.1074 9.5941C23.9488 7.61657 22.3177 6.07163 20.214 4.95927C18.1408 3.81601 15.6864 3.24438 12.851 3.24438H3.38424V29.7556Z" fill="white"/>
  <path d="M40.8017 14.7851H57.7229V17.7051H40.8017V14.7851ZM41.1675 29.7556H60.4211V32.7219H37.7833V0.278089H59.7351V3.24438H41.1675V29.7556Z" fill="white"/>
  <path d="M77.2026 33C74.8245 33 72.5379 32.6138 70.3427 31.8413C68.178 31.0379 66.5011 30.0183 65.3121 28.7823L66.6383 26.1404C67.7664 27.2528 69.2756 28.1952 71.1659 28.9677C73.0867 29.7093 75.0989 30.0801 77.2026 30.0801C79.2149 30.0801 80.846 29.8329 82.0961 29.3385C83.3766 28.8132 84.3065 28.118 84.8858 27.2528C85.4955 26.3876 85.8004 25.4298 85.8004 24.3792C85.8004 23.1124 85.4346 22.0927 84.7029 21.3202C84.0016 20.5478 83.0717 19.9452 81.9131 19.5126C80.7546 19.0492 79.474 18.6475 78.0716 18.3076C76.6691 17.9677 75.2666 17.6124 73.8641 17.2416C72.4616 16.8399 71.1659 16.3146 69.9768 15.6657C68.8183 15.0169 67.8731 14.1671 67.1414 13.1166C66.4401 12.0351 66.0895 10.6292 66.0895 8.89888C66.0895 7.29214 66.5011 5.82444 67.3243 4.49579C68.178 3.13624 69.4738 2.05478 71.2116 1.25141C72.9495 0.417136 75.1751 0 77.8886 0C79.6875 0 81.471 0.26264 83.2394 0.787922C85.0077 1.2823 86.5322 1.97753 87.8127 2.87359L86.6693 5.60815C85.2974 4.68118 83.8339 4.00141 82.279 3.56882C80.7546 3.13624 79.2759 2.91994 77.8429 2.91994C75.9221 2.91994 74.3367 3.18259 73.0867 3.70787C71.8366 4.23315 70.9067 4.94382 70.297 5.83989C69.7177 6.70506 69.428 7.69382 69.428 8.80618C69.428 10.073 69.7786 11.0927 70.4799 11.8652C71.2116 12.6376 72.1568 13.2402 73.3153 13.6728C74.5044 14.1053 75.8002 14.4916 77.2026 14.8315C78.6051 15.1713 79.9923 15.5421 81.3643 15.9438C82.7668 16.3455 84.0473 16.8708 85.2059 17.5197C86.395 18.1376 87.3401 18.9719 88.0413 20.0225C88.7731 21.073 89.1389 22.448 89.1389 24.1475C89.1389 25.7233 88.7121 27.191 87.8584 28.5506C87.0047 29.8792 85.6937 30.9607 83.9254 31.7949C82.1875 32.5983 79.9466 33 77.2026 33Z" fill="white"/>
  <path d="M96.5127 32.7219V0.278089H99.8969V32.7219H96.5127Z" fill="white"/>
  <path d="M110.313 32.7219V0.278089H122.295C125.008 0.278089 127.341 0.726124 129.292 1.62219C131.243 2.48736 132.737 3.75421 133.774 5.42275C134.841 7.06039 135.375 9.05337 135.375 11.4017C135.375 13.6882 134.841 15.6657 133.774 17.3343C132.737 18.9719 131.243 20.2388 129.292 21.1348C127.341 22 125.008 22.4326 122.295 22.4326H112.188L113.697 20.8567V32.7219H110.313ZM132.173 32.7219L123.941 20.9494H127.6L135.878 32.7219H132.173ZM113.697 21.1348L112.188 19.5126H122.204C125.405 19.5126 127.829 18.802 129.475 17.3806C131.152 15.9593 131.99 13.9663 131.99 11.4017C131.99 8.80618 131.152 6.79775 129.475 5.3764C127.829 3.95506 125.405 3.24438 122.204 3.24438H112.188L113.697 1.62219V21.1348Z" fill="white"/>
  <path d="M146.381 14.7851H163.302V17.7051H146.381V14.7851ZM146.746 29.7556H166V32.7219H143.362V0.278089H165.314V3.24438H146.746V29.7556Z" fill="white"/>
</svg>
