<svg width="216" height="216" viewBox="0 0 216 216" fill="none" xmlns="http://www.w3.org/2000/svg">
<path d="M215.221 108.016C215.221 167.386 167.091 215.516 107.721 215.516C48.3501 215.516 0.220703 167.386 0.220703 108.016C0.220703 48.645 48.3501 0.515625 107.721 0.515625C167.091 0.515625 215.221 48.645 215.221 108.016Z" fill="#9AD351"/>
<path d="M210.833 118.668L198.786 117.923L198.88 116.396L204.361 116.735L204.771 110.1L199.29 109.762L199.385 108.234L211.432 108.979L211.337 110.506L206.128 110.184L205.718 116.819L210.927 117.141L210.833 118.668Z" fill="#282828"/>
<path d="M209.688 126.291L209.45 127.561L196.68 130.191L196.98 128.587L200.718 127.832L201.648 122.852L198.431 120.816L198.731 119.212L209.688 126.291ZM201.95 127.717L207.831 126.601L202.762 123.372L201.95 127.717Z" fill="#282828"/>
<path d="M194.66 136.714L199.491 138.182C199.467 137.949 199.449 137.677 199.437 137.366C199.425 137.054 199.442 136.704 199.489 136.316C199.544 135.941 199.637 135.537 199.769 135.104C200.158 133.824 200.728 132.961 201.479 132.514C202.242 132.071 203.247 132.038 204.494 132.417L208.235 133.554L207.805 134.969L204.226 133.882C203.391 133.628 202.718 133.642 202.206 133.925C201.701 134.222 201.308 134.831 201.028 135.753C200.884 136.23 200.791 136.729 200.751 137.25C200.708 137.782 200.722 138.224 200.792 138.577L206.209 140.223L205.774 141.654L194.225 138.146L194.66 136.714Z" fill="#282828"/>
<path d="M203.164 148.308L202.652 149.494L189.617 149.235L190.264 147.737L194.076 147.828L196.084 143.177L193.397 140.48L194.044 138.981L203.164 148.308ZM195.303 147.987L201.285 148.2L197.055 143.929L195.303 147.987Z" fill="#282828"/>
<path d="M194.389 162.431L196.441 158.806L187.121 153.53L187.874 152.198L197.194 157.475L199.246 153.85L200.43 154.52L195.572 163.101L194.389 162.431Z" fill="#282828"/>
<path d="M184.729 157.649L194.542 164.677L193.651 165.921L189.933 163.258L188.25 165.607C187.735 166.326 187.177 166.833 186.576 167.127C185.984 167.428 185.372 167.533 184.74 167.443C184.11 167.368 183.491 167.113 182.883 166.677C182.312 166.268 181.877 165.776 181.579 165.199C181.29 164.63 181.18 164.014 181.25 163.353C181.319 162.692 181.601 162.016 182.096 161.325L184.729 157.649ZM184.875 159.635L183.251 161.901C182.902 162.39 182.71 162.852 182.676 163.288C182.652 163.731 182.743 164.13 182.948 164.486C183.162 164.848 183.444 165.155 183.794 165.406C184.144 165.657 184.518 165.826 184.914 165.915C185.304 166.013 185.7 165.976 186.102 165.804C186.513 165.639 186.907 165.293 187.283 164.768L188.897 162.516L184.875 159.635Z" fill="#282828"/>
<path d="M175.965 169.171L184.5 177.706L177.913 184.293L169.378 175.758L170.46 174.676L178.033 182.25L182.457 177.826L174.883 170.253L175.965 169.171Z" fill="#282828"/>
<path d="M168.016 176.972L175.536 186.412L171.6 189.548C171.184 189.88 170.732 190.095 170.245 190.193C169.765 190.3 169.28 190.309 168.79 190.221C168.307 190.143 167.85 189.978 167.419 189.727C166.994 189.486 166.634 189.179 166.337 188.807C165.928 188.292 165.651 187.709 165.507 187.055C165.37 186.411 165.394 185.776 165.578 185.152C165.768 184.536 166.143 184.006 166.701 183.561L169.52 181.316L166.819 177.925L168.016 176.972ZM170.368 182.379L167.615 184.572C167.287 184.833 167.074 185.148 166.976 185.516C166.869 185.891 166.869 186.282 166.976 186.689C167.074 187.104 167.265 187.488 167.547 187.843C167.844 188.215 168.188 188.484 168.581 188.649C168.981 188.824 169.376 188.893 169.767 188.856C170.159 188.82 170.509 188.678 170.82 188.431L173.492 186.302L170.368 182.379Z" fill="#282828"/>
<path d="M155.875 185.736C156.599 185.29 157.344 185.031 158.111 184.958C158.878 184.885 159.63 184.961 160.368 185.186C161.101 185.426 161.774 185.784 162.386 186.259C163.004 186.743 163.515 187.314 163.919 187.97C164.341 188.655 164.622 189.381 164.761 190.147C164.896 190.929 164.895 191.695 164.758 192.445C164.617 193.21 164.339 193.914 163.922 194.556C163.512 195.208 162.959 195.748 162.265 196.176C161.541 196.622 160.792 196.877 160.02 196.94C159.247 197.003 158.493 196.915 157.76 196.674C157.026 196.434 156.353 196.076 155.741 195.601C155.129 195.126 154.624 194.566 154.226 193.919C153.804 193.234 153.521 192.503 153.376 191.728C153.237 190.961 153.238 190.196 153.378 189.43C153.515 188.68 153.792 187.984 154.209 187.342C154.625 186.699 155.18 186.164 155.875 185.736ZM162.602 188.781C162.281 188.26 161.887 187.804 161.42 187.413C160.949 187.037 160.443 186.756 159.903 186.57C159.362 186.384 158.806 186.314 158.235 186.359C157.664 186.405 157.114 186.591 156.583 186.918C156.033 187.256 155.612 187.675 155.32 188.174C155.029 188.673 154.852 189.208 154.791 189.778C154.72 190.354 154.755 190.931 154.898 191.509C155.031 192.092 155.249 192.63 155.552 193.122C155.873 193.644 156.269 194.092 156.74 194.467C157.201 194.849 157.707 195.13 158.257 195.31C158.804 195.506 159.359 195.576 159.924 195.521C160.486 195.482 161.027 195.301 161.548 194.98C162.098 194.642 162.519 194.223 162.811 193.724C163.108 193.234 163.292 192.702 163.364 192.125C163.425 191.555 163.389 190.978 163.256 190.395C163.129 189.821 162.911 189.283 162.602 188.781Z" fill="#282828"/>
<path d="M142.789 194.137L142.217 192.903L149.653 189.46L154.725 200.412L147.428 203.791L146.857 202.557L152.765 199.821L151.122 196.273L145.985 198.652L145.449 197.495L150.586 195.116L148.836 191.337L142.789 194.137Z" fill="#282828"/>
<path d="M141.209 193.315L145.065 204.753L143.615 205.242L141.948 200.296L140.417 200.812L138.315 207.028L136.64 207.593L139.024 200.618L132.494 196.253L134.266 195.656L139.94 199.502L141.503 198.975L139.759 193.804L141.209 193.315Z" fill="#282828"/>
<path d="M125.243 208.85L129.308 207.945L126.982 197.491L128.475 197.158L130.802 207.613L134.867 206.708L135.163 208.035L125.538 210.177L125.243 208.85Z" fill="#282828"/>
<path d="M118.478 202.911L118.593 204.266L113.596 204.691L113.481 203.336L118.478 202.911Z" fill="#282828"/>
<path d="M96.3014 211.062L97.0925 199.018L98.6192 199.119L98.2593 204.598L104.892 205.033L105.252 199.554L106.779 199.655L105.988 211.699L104.461 211.598L104.803 206.391L98.1702 205.955L97.8281 211.163L96.3014 211.062Z" fill="#282828"/>
<path d="M88.9092 209.884L87.64 209.642L85.0588 196.862L86.6619 197.168L87.4021 200.909L92.3784 201.858L94.4269 198.649L96.03 198.955L88.9092 209.884ZM87.5131 202.141L88.6058 208.026L91.8548 202.969L87.5131 202.141Z" fill="#282828"/>
<path d="M78.4131 194.76L76.9272 199.585C77.1597 199.562 77.4318 199.545 77.7434 199.534C78.0551 199.523 78.405 199.542 78.7933 199.591C79.1674 199.647 79.5711 199.741 80.0044 199.875C81.2825 200.268 82.1435 200.842 82.5875 201.595C83.0281 202.359 83.0566 203.364 82.673 204.61L81.5224 208.347L80.1089 207.911L81.2095 204.337C81.4663 203.503 81.4544 202.829 81.1737 202.316C80.8788 201.81 80.2711 201.415 79.3504 201.132C78.8738 200.985 78.3751 200.891 77.8544 200.849C77.3228 200.804 76.8803 200.816 76.527 200.885L74.861 206.295L73.4313 205.855L76.9834 194.32L78.4131 194.76Z" fill="#282828"/>
<path d="M66.848 203.211L65.6638 202.695L65.9711 189.66L67.4669 190.313L67.362 194.125L72.0054 196.15L74.7125 193.473L76.2084 194.126L66.848 203.211ZM67.1978 195.351L66.9628 201.332L71.2491 197.119L67.1978 195.351Z" fill="#282828"/>
<path d="M52.8099 194.381L56.4268 196.447L61.7377 187.146L63.0663 187.905L57.7554 197.205L61.3723 199.271L60.6979 200.452L52.1355 195.562L52.8099 194.381Z" fill="#282828"/>
<path d="M57.638 184.742L50.5378 194.503L49.3005 193.603L51.9906 189.905L49.6535 188.205C48.9386 187.685 48.4362 187.123 48.1463 186.52C47.8498 185.926 47.749 185.313 47.844 184.681C47.9233 184.052 48.1829 183.435 48.6229 182.83C49.0362 182.262 49.5321 181.831 50.1104 181.537C50.682 181.252 51.2982 181.147 51.9589 181.221C52.6197 181.295 53.2938 181.582 53.9811 182.082L57.638 184.742ZM55.6507 184.873L53.3961 183.233C52.9103 182.88 52.4496 182.685 52.0138 182.648C51.5713 182.621 51.1714 182.708 50.8139 182.911C50.4497 183.122 50.141 183.402 49.8877 183.75C49.6343 184.099 49.4618 184.471 49.3701 184.867C49.2693 185.256 49.3034 185.652 49.4725 186.055C49.6349 186.468 49.9774 186.864 50.4998 187.244L52.7406 188.874L55.6507 184.873Z" fill="#282828"/>
<path d="M46.2429 175.964L37.6772 184.467L31.1138 177.856L39.6795 169.352L40.7574 170.438L33.1569 177.984L37.5644 182.423L45.165 174.878L46.2429 175.964Z" fill="#282828"/>
<path d="M38.4546 167.974L28.9594 175.425L25.8528 171.467C25.524 171.048 25.3123 170.594 25.2177 170.107C25.1143 169.626 25.1082 169.141 25.1995 168.652C25.2819 168.169 25.4499 167.713 25.7035 167.284C25.9482 166.861 26.2578 166.503 26.6322 166.209C27.1493 165.803 27.7351 165.531 28.3896 165.392C29.0351 165.26 29.6694 165.288 30.2925 165.476C30.9066 165.671 31.4341 166.05 31.8749 166.611L34.0998 169.446L37.5101 166.77L38.4546 167.974ZM33.0299 170.286L30.8574 167.518C30.5986 167.188 30.2855 166.972 29.9183 166.872C29.5441 166.762 29.1529 166.759 28.7448 166.863C28.3297 166.959 27.9439 167.146 27.5873 167.426C27.2128 167.72 26.9414 168.062 26.7731 168.454C26.596 168.852 26.5241 169.247 26.5576 169.639C26.5911 170.03 26.7303 170.382 26.9752 170.694L29.0847 173.382L33.0299 170.286Z" fill="#282828"/>
<path d="M29.7754 155.813C30.2158 156.54 30.4696 157.287 30.537 158.055C30.6044 158.822 30.523 159.574 30.2928 160.31C30.0471 161.041 29.6845 161.712 29.205 162.32C28.7159 162.934 28.1417 163.441 27.4825 163.84C26.7943 164.257 26.0666 164.532 25.2994 164.666C24.5166 164.796 23.7508 164.789 23.0019 164.646C22.2374 164.5 21.5355 164.216 20.8962 163.795C20.2472 163.38 19.7114 162.823 19.2886 162.126C18.8482 161.399 18.5992 160.648 18.5415 159.875C18.4839 159.102 18.5779 158.349 18.8236 157.617C19.0693 156.885 19.4319 156.215 19.9114 155.607C20.3908 154.998 20.9553 154.497 21.6048 154.104C22.293 153.687 23.0256 153.409 23.8025 153.27C24.5697 153.136 25.3355 153.143 26.1 153.289C26.8489 153.432 27.543 153.714 28.1823 154.135C28.8216 154.556 29.3526 155.115 29.7754 155.813ZM26.681 162.517C27.2045 162.2 27.6635 161.81 28.0581 161.345C28.4371 160.877 28.7216 160.374 28.9118 159.834C29.102 159.295 29.1764 158.74 29.1351 158.169C29.0938 157.597 28.9117 157.045 28.5888 156.512C28.2541 155.959 27.8383 155.536 27.3414 155.24C26.8446 154.945 26.3112 154.765 25.7415 154.699C25.1658 154.624 24.5887 154.655 24.0101 154.794C23.4256 154.922 22.8861 155.137 22.3917 155.436C21.8683 155.753 21.4171 156.146 21.0381 156.614C20.6532 157.072 20.3686 157.576 20.1843 158.125C19.9845 158.67 19.9101 159.225 19.961 159.79C19.9964 160.352 20.1727 160.894 20.4897 161.418C20.8244 161.97 21.2402 162.394 21.7371 162.69C22.2243 162.991 22.7557 163.179 23.3313 163.254C23.9011 163.32 24.4782 163.288 25.0627 163.16C25.6375 163.037 26.177 162.823 26.681 162.517Z" fill="#282828"/>
<path d="M21.4809 142.79L22.7171 142.223L26.1327 149.671L15.1614 154.703L11.8095 147.394L13.0457 146.827L15.7598 152.745L19.3139 151.115L16.9542 145.969L18.1131 145.438L20.4728 150.584L24.2587 148.848L21.4809 142.79Z" fill="#282828"/>
<path d="M22.2987 141.196L10.8466 145.009L10.3634 143.557L15.3152 141.909L14.8051 140.376L8.59678 138.25L8.03835 136.573L15.0045 138.984L19.3938 132.47L19.9845 134.244L16.117 139.904L16.6378 141.468L21.8155 139.745L22.2987 141.196Z" fill="#282828"/>
<path d="M6.85624 125.323L7.74563 129.392L18.2086 127.105L18.5353 128.599L8.07235 130.886L8.96174 134.955L7.63311 135.246L5.52761 125.613L6.85624 125.323Z" fill="#282828"/>
<path d="M12.7709 118.388L11.4149 118.493L11.0284 113.493L12.3844 113.388L12.7709 118.388Z" fill="#282828"/>
<path d="M4.73609 96.1833L16.7737 97.0672L16.6616 98.5931L11.1854 98.191L10.6986 104.82L16.1749 105.222L16.0629 106.748L4.02526 105.864L4.1373 104.338L9.34229 104.721L9.82904 98.0914L4.62405 97.7092L4.73609 96.1833Z" fill="#282828"/>
<path d="M5.88236 89.0233L6.12927 87.7551L18.919 85.2227L18.6071 86.8246L14.8634 87.5505L13.8952 92.5232L17.0964 94.5839L16.7845 96.1858L5.88236 89.0233ZM13.6303 87.6568L7.74123 88.7271L12.7856 91.9954L13.6303 87.6568Z" fill="#282828"/>
<path d="M21.0729 78.449L16.2588 76.9267C16.2804 77.1594 16.2953 77.4316 16.3037 77.7433C16.3122 78.055 16.2907 78.4048 16.2393 78.7927C16.1806 79.1664 16.0829 79.5693 15.9462 80.0016C15.543 81.2767 14.9631 82.1333 14.2064 82.5716C13.4389 83.0064 12.4338 83.0274 11.1911 82.6344L7.46309 81.4555L7.90901 80.0454L11.475 81.173C12.307 81.4361 12.9808 81.4293 13.4962 81.1524C14.0043 80.8614 14.4035 80.2566 14.694 79.3381C14.8443 78.8627 14.9424 78.3647 14.9881 77.8443C15.0372 77.3131 15.0285 76.8705 14.9621 76.5167L9.56456 74.8099L10.0156 73.3835L21.5239 77.0226L21.0729 78.449Z" fill="#282828"/>
<path d="M12.6752 66.7886L13.2006 65.6083L26.2323 66.0128L25.5686 67.5037L21.7575 67.3704L19.6974 71.9985L22.354 74.7256L21.6903 76.2165L12.6752 66.7886ZM20.5321 67.197L14.5531 66.9174L18.7346 71.2351L20.5321 67.197Z" fill="#282828"/>
<path d="M21.582 52.7814L19.4901 56.383L28.7511 61.7622L27.9826 63.0853L18.7216 57.706L16.6296 61.3075L15.4536 60.6244L20.406 52.0983L21.582 52.7814Z" fill="#282828"/>
<path d="M31.1181 57.7352L21.3833 50.5994L22.2878 49.3654L25.9761 52.069L27.6846 49.7381C28.2073 49.0251 28.7708 48.5248 29.3751 48.2371C29.9703 47.9427 30.5835 47.8442 31.2148 47.9415C31.8436 48.023 32.4596 48.2849 33.0629 48.7271C33.6296 49.1425 34.059 49.6399 34.3509 50.2193C34.6337 50.792 34.7368 51.4085 34.6602 52.069C34.5836 52.7295 34.294 53.4025 33.7915 54.088L31.1181 57.7352ZM30.9943 55.7474L32.6425 53.4988C32.9977 53.0143 33.1944 52.5543 33.2327 52.1187C33.2618 51.6763 33.1758 51.276 32.9747 50.9178C32.7644 50.5529 32.4856 50.2431 32.1383 49.9885C31.7909 49.7339 31.4195 49.56 31.0241 49.4669C30.6353 49.3646 30.239 49.3973 29.8351 49.5649C29.422 49.7259 29.0245 50.0668 28.6426 50.5878L27.0044 52.8227L30.9943 55.7474Z" fill="#282828"/>
<path d="M39.7174 46.5668L31.2449 37.9703L37.88 31.4309L46.3525 40.0275L45.2628 41.1015L37.7449 33.4735L33.2892 37.8649L40.8071 45.4929L39.7174 46.5668Z" fill="#282828"/>
<path d="M47.7921 38.7076L40.3752 29.1852L44.3451 26.0931C44.7654 25.7658 45.2195 25.5558 45.7075 25.463C46.1885 25.3613 46.6736 25.357 47.1627 25.4501C47.6448 25.5342 48.1002 25.7039 48.5288 25.9591C48.9504 26.2053 49.3075 26.5162 49.6 26.8917C50.0039 27.4103 50.2742 27.997 50.4108 28.652C50.5404 29.298 50.5101 29.9322 50.3197 30.5546C50.1223 31.168 49.7419 31.6941 49.1786 32.1328L46.3353 34.3474L48.9991 37.7674L47.7921 38.7076ZM45.4996 33.2745L48.2759 31.1121C48.6067 30.8544 48.8232 30.5422 48.9253 30.1753C49.0364 29.8015 49.0406 29.4104 48.9379 29.0019C48.8442 28.5865 48.6581 28.1999 48.3795 27.8423C48.087 27.4668 47.7454 27.1941 47.3546 27.0244C46.9569 26.8458 46.5622 26.7725 46.1706 26.8046C45.779 26.8367 45.4267 26.9746 45.1138 27.2183L42.418 29.318L45.4996 33.2745Z" fill="#282828"/>
<path d="M59.9724 30.0368C59.2438 30.4745 58.4956 30.7257 57.7279 30.7902C56.9602 30.8548 56.209 30.7706 55.4741 30.5377C54.7432 30.2893 54.0744 29.9243 53.4677 29.4426C52.8552 28.9512 52.3505 28.3751 51.9537 27.7145C51.5393 27.0247 51.2668 26.296 51.1362 25.5283C51.0094 24.7451 51.0188 23.9793 51.1641 23.2309C51.3134 22.467 51.5997 21.7661 52.0231 21.1284C52.4407 20.4809 52.9992 19.9471 53.6987 19.5269C54.4273 19.0892 55.1784 18.843 55.9519 18.7881C56.7255 18.7333 57.4777 18.8301 58.2087 19.0785C58.9396 19.3269 59.6084 19.692 60.2151 20.1737C60.8218 20.6554 61.3206 21.2217 61.7116 21.8726C62.126 22.5624 62.4014 23.296 62.5379 24.0733C62.6685 24.841 62.6592 25.6068 62.5099 26.3708C62.3645 27.1191 62.0801 27.8122 61.6568 28.4499C61.2334 29.0877 60.6719 29.6166 59.9724 30.0368ZM53.2798 26.9179C53.5949 27.4425 53.9839 27.9029 54.4467 28.2992C54.9134 28.6799 55.416 28.9663 55.9545 29.1585C56.493 29.3506 57.0479 29.4271 57.6193 29.3879C58.1907 29.3488 58.7436 29.1687 59.2779 28.8477C59.8317 28.515 60.2572 28.1008 60.5543 27.605C60.8514 27.1092 61.0338 26.5766 61.1015 26.0071C61.179 25.4317 61.1495 24.8545 61.0132 24.2753C60.8865 23.6903 60.6744 23.1501 60.3767 22.6546C60.0616 22.13 59.6707 21.6774 59.204 21.2966C58.7471 20.9101 58.2445 20.6237 57.6963 20.4374C57.1519 20.2355 56.597 20.159 56.0314 20.2079C55.4697 20.2413 54.9265 20.4155 54.4019 20.7306C53.8482 21.0633 53.4227 21.4775 53.1256 21.9733C52.8226 22.4594 52.6324 22.9901 52.555 23.5655C52.4873 24.135 52.5167 24.7122 52.6434 25.2972C52.7642 25.8725 52.9763 26.4127 53.2798 26.9179Z" fill="#282828"/>
<path d="M73.4118 21.5972L73.9695 22.8376L66.4961 26.1976L61.5467 15.1891L68.8805 11.8918L69.4382 13.1322L63.4998 15.8021L65.1031 19.3683L70.2663 17.0469L70.7891 18.2098L65.626 20.5311L67.3339 24.3298L73.4118 21.5972Z" fill="#282828"/>
<path d="M74.4688 22.5982L70.6996 11.1318L72.1531 10.6541L73.7828 15.6121L75.3171 15.1077L77.4664 8.9075L79.146 8.35539L76.7086 15.3124L83.2058 19.7262L81.4293 20.3102L75.7847 16.4214L74.2182 16.9363L75.9222 22.1205L74.4688 22.5982Z" fill="#282828"/>
<path d="M90.9823 7.0654L86.9067 7.92373L89.1138 18.4038L87.6166 18.7191L85.4095 8.23903L81.3339 9.09736L81.0536 7.76655L90.702 5.7346L90.9823 7.0654Z" fill="#282828"/>
<path d="M97.5272 13.0403L97.4276 11.6839L102.429 11.3167L102.529 12.673L97.5272 13.0403Z" fill="#282828"/>
<path d="M119.75 5.061L118.819 17.0951L117.294 16.9772L117.717 11.5025L111.09 10.9902L110.667 16.4649L109.141 16.347L110.071 4.31288L111.597 4.4308L111.195 9.63427L117.822 10.1466L118.224 4.94308L119.75 5.061Z" fill="#282828"/>
<path d="M127.528 6.33282L128.794 6.58941L131.228 19.3981L129.629 19.074L128.932 15.3248L123.967 14.3187L121.881 17.504L120.282 17.1799L127.528 6.33282ZM128.835 14.091L127.81 8.1939L124.503 13.2132L128.835 14.091Z" fill="#282828"/>
<path d="M137.41 21.4157L138.95 16.6074C138.718 16.628 138.445 16.642 138.134 16.6492C137.822 16.6564 137.472 16.6337 137.085 16.5808C136.711 16.5207 136.308 16.4215 135.877 16.2832C134.603 15.8751 133.749 15.292 133.313 14.5336C132.881 13.7645 132.864 12.7594 133.262 11.5182L134.455 7.7946L135.863 8.24584L134.722 11.8075C134.456 12.6386 134.46 13.3123 134.735 13.8288C135.024 14.338 135.628 14.7395 136.545 15.0334C137.02 15.1856 137.517 15.2855 138.038 15.3331C138.569 15.3843 139.011 15.3773 139.365 15.3122L141.093 9.92114L142.517 10.3776L138.835 21.8721L137.41 21.4157Z" fill="#282828"/>
<path d="M149.13 13.0479L150.308 13.5777L149.855 26.6079L148.367 25.9386L148.514 22.128L143.894 20.0506L141.157 22.6971L139.668 22.0279L149.13 13.0479ZM148.692 20.9033L148.994 14.9253L144.661 19.0908L148.692 20.9033Z" fill="#282828"/>
<path d="M163.134 21.999L159.54 19.8938L154.127 29.135L152.807 28.3617L158.22 19.1205L154.626 17.0153L155.314 15.8418L163.821 20.8255L163.134 21.999Z" fill="#282828"/>
<path d="M158.16 31.5096L165.331 21.8009L166.562 22.71L163.845 26.3883L166.17 28.1054C166.881 28.6306 167.379 29.1959 167.664 29.8013C167.957 30.3976 168.053 31.0112 167.953 31.642C167.869 32.2705 167.605 32.8856 167.161 33.4873C166.743 34.0525 166.244 34.48 165.664 34.7698C165.09 35.0506 164.473 35.1514 163.813 35.0724C163.153 34.9933 162.481 34.7013 161.797 34.1963L158.16 31.5096ZM160.148 31.393L162.391 33.0495C162.874 33.4064 163.333 33.6048 163.769 33.6447C164.211 33.6754 164.612 33.5909 164.971 33.3911C165.336 33.1821 165.647 32.9044 165.903 32.558C166.159 32.2116 166.334 31.8409 166.429 31.4458C166.532 31.0574 166.501 30.6609 166.335 30.2564C166.175 29.8428 165.836 29.444 165.316 29.0602L163.087 27.4139L160.148 31.393Z" fill="#282828"/>
<path d="M169.788 40.5909L178.446 32.181L184.937 38.8635L176.279 47.2733L175.213 46.1758L182.895 38.7136L178.536 34.2261L170.854 41.6883L169.788 40.5909Z" fill="#282828"/>
<path d="M177.588 48.7531L187.164 41.4059L190.227 45.3982C190.551 45.8208 190.758 46.2765 190.847 46.7651C190.945 47.2469 190.946 47.732 190.849 48.2204C190.762 48.7019 190.589 49.156 190.331 49.5827C190.081 50.0026 189.768 50.3573 189.39 50.6471C188.869 51.0472 188.28 51.3132 187.624 51.4451C186.977 51.57 186.343 51.535 185.722 51.34C185.11 51.1382 184.587 50.754 184.152 50.1875L181.958 47.3282L178.519 49.9669L177.588 48.7531ZM183.037 46.5003L185.179 49.2923C185.435 49.625 185.745 49.8437 186.111 49.9485C186.484 50.0623 186.876 50.0694 187.285 49.9697C187.701 49.879 188.089 49.6957 188.448 49.4197C188.826 49.13 189.101 48.7903 189.274 48.4008C189.455 48.0044 189.531 47.6103 189.502 47.2185C189.473 46.8266 189.338 46.4733 189.096 46.1586L187.016 43.4476L183.037 46.5003Z" fill="#282828"/>
<path d="M186.157 61.0294C185.725 60.2976 185.479 59.5476 185.421 58.7794C185.362 58.0112 185.451 57.2606 185.69 56.5275C185.943 55.7984 186.313 55.1323 186.8 54.5292C187.295 53.9203 187.875 53.4199 188.539 53.0279C189.232 52.6187 189.962 52.3515 190.731 52.2266C191.515 52.1056 192.281 52.1205 193.028 52.2714C193.791 52.4263 194.49 52.7178 195.124 53.1458C195.768 53.5681 196.298 54.1306 196.713 54.8331C197.146 55.565 197.386 56.3179 197.435 57.0918C197.485 57.8657 197.382 58.6172 197.128 59.3463C196.875 60.0754 196.505 60.7415 196.019 61.3446C195.532 61.9477 194.962 62.4424 194.309 62.8286C193.616 63.2379 192.88 63.5079 192.102 63.6386C191.333 63.7636 190.568 63.7487 189.805 63.5938C189.057 63.4429 188.366 63.1534 187.732 62.7253C187.097 62.2973 186.572 61.732 186.157 61.0294ZM189.326 54.3599C188.799 54.6712 188.335 55.0567 187.936 55.5166C187.552 55.9805 187.261 56.4809 187.065 57.018C186.869 57.5551 186.789 58.1094 186.824 58.6811C186.859 59.2528 187.035 59.807 187.352 60.3437C187.68 60.8999 188.091 61.3283 188.585 61.6291C189.078 61.9299 189.61 62.1162 190.179 62.1881C190.754 62.2698 191.331 62.2446 191.911 62.1125C192.497 61.9902 193.039 61.782 193.536 61.488C194.063 61.1767 194.519 60.7892 194.903 60.3253C195.293 59.8712 195.583 59.3707 195.773 58.8239C195.979 58.2811 196.06 57.7267 196.015 57.1608C195.986 56.5989 195.816 56.0544 195.504 55.5275C195.176 54.9713 194.765 54.5428 194.271 54.2421C193.787 53.9356 193.258 53.7415 192.683 53.6598C192.114 53.5879 191.537 53.6131 190.951 53.7354C190.375 53.852 189.833 54.0601 189.326 54.3599Z" fill="#282828"/>
<path d="M194.254 74.0017L193.012 74.5548L189.679 67.0689L200.706 62.1605L203.976 69.5066L202.734 70.0596L200.086 64.1113L196.514 65.7014L198.816 70.8731L197.651 71.3916L195.349 66.2199L191.544 67.9136L194.254 74.0017Z" fill="#282828"/>
<path d="M193.479 75.7011L204.974 72.0185L205.44 73.4756L200.47 75.0679L200.963 76.6059L207.147 78.8019L207.686 80.4856L200.748 77.9958L196.285 84.4595L195.715 82.6787L199.646 77.0636L199.143 75.4932L193.946 77.1581L193.479 75.7011Z" fill="#282828"/>
<path d="M208.744 91.7243L207.901 87.6455L197.413 89.8126L197.103 88.3142L207.592 86.1471L206.749 82.0683L208.081 81.7931L210.076 91.4491L208.744 91.7243Z" fill="#282828"/>
<path d="M202.745 98.3562L204.102 98.2619L204.45 103.265L203.093 103.359L202.745 98.3562Z" fill="#282828"/>
</svg>
