<svg width="349" height="327" viewBox="0 0 349 327" fill="none" xmlns="http://www.w3.org/2000/svg">
<path d="M216.02 93.138C188.802 92.3941 145.32 113.769 122.419 142.317C87.3161 186.07 53.5685 164.624 20.9115 194.256C-3.78862 216.674 -11.5345 265.084 25.2028 290.192C61.9401 315.3 125.409 288.357 162.922 303.57C200.435 318.783 234.029 331.267 272.186 325.52C315.997 318.937 354.665 279.367 347.52 208.653C338.384 118.189 274.114 94.7222 216.02 93.138Z" fill="#E1ECFF"/>
<path d="M320.578 224.533C320.578 224.533 343.425 234.618 344.766 254.215C345.957 271.623 336.795 289.493 320.578 297.843C302.05 307.363 294.004 291.524 299.868 281.511C305.733 271.498 338.354 256.121 316.179 236.431C316.179 228.016 320.578 224.533 320.578 224.533Z" fill="#F774B9"/>
<path opacity="0.58" d="M88.2268 222.184C80.1269 221.333 65.2038 221.687 57.1505 223.779C49.8123 225.685 42.8461 234.149 53.932 238.083C65.0179 242.017 55.7951 246.841 41.058 247.545C26.3209 248.25 19.7123 257.966 30.0829 263.355C40.4536 268.744 61.5956 269.077 79.1149 269.077C96.6342 269.077 119.289 266.356 128.855 260.62C138.421 254.884 131.068 249.441 127.746 247.932C124.424 246.422 121.202 246.068 122.107 243.705C123.012 241.341 127.113 234.453 121.066 229.136C110.821 220.145 96.906 223.099 88.2268 222.184Z" fill="#99ADF9"/>
<path d="M167.287 211.77C167.287 211.77 166.593 226.932 165.341 228.738C164.09 230.544 152.825 233.677 152.203 237.224C151.581 240.772 151.649 246.962 157.349 248.074C163.049 249.186 175.229 248.911 178.351 248.789C181.473 248.668 187.946 239.885 190.796 219.855C173.828 212.106 167.287 211.77 167.287 211.77Z" fill="#F774B9"/>
<path d="M196.874 22.0277C196.874 22.0277 188.352 5.80646 182.398 2.05155C176.444 -1.70336 172.5 0.127609 171.037 4.06847C169.574 8.00934 169.202 23.8586 169.202 23.8586C169.202 23.8586 152.709 39.1608 146.48 56.1115C140.25 73.0622 138.874 107.425 178.182 111.999C217.491 116.573 257.993 103.577 275.316 91.8475C269.63 63.1671 261.566 25.7826 259.731 15.4441C257.897 5.10554 252.222 -0.022589 245.988 0.013172C239.755 0.048933 232.045 14.5143 229.678 23.3115C213.278 21.384 196.874 22.0277 196.874 22.0277Z" fill="#FF97C9"/>
<path opacity="0.3" d="M234.058 24.2018C234.058 24.2018 239.483 6.70036 244.203 6.79334C248.43 6.87559 250.386 20.0249 250.74 26.5012C250.753 26.7314 250.712 26.9612 250.621 27.173C250.53 27.3847 250.391 27.5727 250.216 27.7221C250.04 27.8716 249.833 27.9786 249.609 28.0348C249.386 28.091 249.152 28.0948 248.927 28.0461C243.162 26.8159 234.058 24.2018 234.058 24.2018Z" fill="white"/>
<path opacity="0.3" d="M169.106 23.9178C169.106 23.9178 168.662 5.46159 172.589 4.08122C176.576 2.67581 182.96 14.3482 185.542 20.3096C185.632 20.5215 185.673 20.7515 185.66 20.9817C185.648 21.2118 185.583 21.4361 185.47 21.637C185.357 21.8379 185.199 22.01 185.008 22.1401C184.818 22.2702 184.6 22.3548 184.372 22.3873C178.543 23.2241 169.106 23.9178 169.106 23.9178Z" fill="white"/>
<path d="M275.318 91.8535C278.114 103.125 294.743 133.086 304.914 149.583C315.084 166.079 324.067 186.774 323.51 212.926C322.952 239.078 313.089 246.219 299.421 250.189C285.753 254.158 277.328 253.05 269.382 254.101C261.436 255.153 253.135 258.561 247.757 254.101C242.378 249.642 239.571 247.013 233.585 250.128C227.598 253.243 212.389 252.388 208.42 251.351C204.45 250.314 202.494 242.372 209.135 238.277C198.26 241.76 170.513 238.57 163.869 211.707C158.555 190.171 174.597 145.649 178.173 135.471C181.832 125.029 183.487 119.25 181.47 109.813C194.77 106.058 275.318 91.8535 275.318 91.8535Z" fill="#FF97C9"/>
<path d="M286.673 117.48C286.673 117.48 272.333 133.101 275.319 149.029C277.393 160.136 291.079 166.255 292.545 175.785C294.011 185.316 304.461 201.176 322.052 192.979C319.845 165.704 286.673 117.48 286.673 117.48Z" fill="#F774B9"/>
<path opacity="0.19" d="M303.49 158C303.49 158 312.668 229.702 278 253.2C302.132 271.944 335 215.248 335 215.248L303.49 158Z" fill="#FF97C9"/>
<path d="M245.565 220.568C245.565 220.568 246.28 235.899 259.612 238.406C257.903 241.886 245.748 239.565 245.197 251.72C242.937 250.339 240.126 247.017 233.589 250.132C242.447 235.227 245.565 220.568 245.565 220.568Z" fill="#F774B9"/>
<path opacity="0.3" d="M177.334 126.29C177.334 126.29 181.897 122.234 195.215 124.144C208.532 126.054 225.465 164.372 223.298 187.266C221.131 210.16 223.97 236.595 202.789 241.569C181.668 249.769 136.209 218.578 136.209 218.578L177.334 126.29Z" fill="white"/>
<path d="M222.826 162.387C222.847 175.658 221.642 188.878 220.351 202.081C219.711 208.647 219.128 215.234 217.955 221.75C217.089 226.535 216.042 235.114 209.876 235.908C207.852 236.169 207.824 239.391 209.876 239.126C216.056 238.329 218.817 232.764 220.104 227.271C221.717 220.391 222.461 213.325 223.158 206.298C224.589 191.711 226.065 177.092 226.044 162.412C226.044 160.341 222.826 160.338 222.826 162.412V162.387Z" fill="#F774B9"/>
<path d="M250.186 188.172C249.181 198.64 246.938 208.939 244.07 219.045C242.64 224.019 241.092 228.951 239.443 233.85C238.62 236.298 237.779 238.742 236.918 241.181C236.085 243.548 235.28 245.966 233.557 247.854C232.162 249.381 234.433 251.662 235.831 250.128C239.221 246.416 240.426 240.948 242.007 236.303C243.795 231.089 245.469 225.843 246.989 220.547C250.028 209.951 252.353 199.155 253.404 188.172C253.604 186.112 250.382 186.127 250.186 188.172Z" fill="#F774B9"/>
<path d="M266.552 185.884C261.545 188.288 256.811 192.461 253.127 196.581C249.444 200.7 247.295 205.771 246.086 211.103C244.877 216.435 243.74 222.657 245.825 227.911C247.584 232.342 251.15 235.9 255.334 238.106C261.081 241.139 267.714 241.704 274.105 241.607C276.172 241.579 276.179 238.36 274.105 238.389C267.696 238.485 260.912 237.96 255.373 234.405C250.131 231.04 247.534 225.822 248.006 219.625C248.478 213.428 249.909 206.751 253.37 201.487C255.159 198.758 257.601 196.559 260.04 194.424C262.561 192.214 265.132 190.133 268.168 188.667C270.035 187.769 268.404 184.994 266.545 185.888L266.552 185.884Z" fill="#F774B9"/>
<path d="M261.233 237.725C257.081 239.335 252.758 240.736 248.717 242.61C247.195 243.297 245.925 244.439 245.081 245.879C244.237 247.319 243.862 248.986 244.007 250.649C244.19 252.695 247.408 252.713 247.226 250.649C246.904 247.045 249.4 245.747 252.325 244.613L262.092 240.829C264.005 240.089 263.164 236.974 261.237 237.725H261.233Z" fill="#F774B9"/>
<path d="M209.881 243.873C208.949 245.856 208.555 248.048 208.736 250.231C208.926 252.277 212.144 252.298 211.955 250.231C211.774 248.618 212.021 246.985 212.67 245.496C213.028 244.699 212.895 243.776 212.094 243.297C211.408 242.886 210.249 243.083 209.892 243.873H209.881Z" fill="#F774B9"/>
<path d="M220.556 244.077C219.451 246.198 219.365 248.49 219.437 250.832C219.497 252.899 222.716 252.906 222.655 250.832C222.602 249.101 222.512 247.285 223.335 245.704C224.289 243.866 221.514 242.239 220.556 244.077Z" fill="#F774B9"/>
<path d="M182.038 112.953C182.038 112.953 231.882 117.144 275.314 91.8535C277.667 98.6481 280.875 105.872 280.875 105.872C280.875 105.872 237.668 132.095 181.405 125.097C179.385 121.764 182.038 112.953 182.038 112.953Z" fill="#9AD351"/>
<path d="M160.594 58.4341C161.86 57.3255 172.596 57.0608 173.726 57.7653C174.856 58.4698 173.604 66.0726 167.16 66.0726C160.716 66.0726 159.615 59.2923 160.594 58.4341Z" fill="#282828"/>
<path d="M206.774 58.4341C208.044 57.3255 218.779 57.0608 219.909 57.7653C221.039 58.4698 219.788 66.0726 213.344 66.0726C206.899 66.0726 205.798 59.2923 206.774 58.4341Z" fill="#282828"/>
<path d="M183.748 89.4723C183.748 89.4723 187.106 80.9826 189.112 81.165C191.118 81.3474 195.721 89.4723 195.721 89.4723" stroke="#1C3177" stroke-width="0.38215" stroke-miterlimit="10" stroke-linecap="round"/>
<path d="M137.686 75.1385C141.962 74.9739 146.243 75.0455 150.51 75.3531C152.577 75.5033 152.57 72.2848 150.51 72.1346C146.243 71.8271 141.962 71.7554 137.686 71.92C135.623 71.9987 135.612 75.2172 137.686 75.1385Z" fill="#F774B9"/>
<path d="M139.121 91.0266C142.679 89.4319 146.32 88.0269 150.028 86.8176C151.987 86.1774 151.151 83.0698 149.173 83.7171C145.204 85.0199 141.307 86.5311 137.497 88.2444C135.613 89.092 137.247 91.867 139.121 91.0266Z" fill="#F774B9"/>
<path d="M226.973 75.7695C230.507 73.6349 234.206 71.7861 238.034 70.2409C239.933 69.4792 239.107 66.368 237.18 67.1368C233.087 68.7697 229.131 70.7273 225.35 72.9909C223.562 74.0637 225.193 76.8388 226.973 75.7695Z" fill="#F774B9"/>
<path d="M228.214 84.7611C231.876 84.9793 235.523 85.3476 239.153 85.8876C241.177 86.188 242.053 83.0875 240.008 82.7835C236.074 82.2006 232.162 81.7786 228.206 81.5426C226.136 81.4175 226.143 84.6359 228.206 84.7611H228.214Z" fill="#F774B9"/>
<path d="M187.118 22.8094C190.078 22.4878 193.058 22.3909 196.033 22.5198C198.103 22.6092 198.1 19.3907 196.033 19.3013C193.058 19.1725 190.078 19.2693 187.118 19.5909C185.083 19.8126 185.058 23.0347 187.118 22.8094Z" fill="#F774B9"/>
<path d="M231.055 24.0762C233.197 24.1132 235.314 24.5511 237.295 25.3671C239.216 26.1396 240.049 23.0284 238.15 22.2631C235.893 21.3584 233.487 20.8818 231.055 20.8577C228.984 20.8255 228.984 24.044 231.055 24.0762Z" fill="#F774B9"/>
<path d="M183.743 142.617C189.241 142.617 193.699 138.445 193.699 133.298C193.699 128.151 189.241 123.979 183.743 123.979C178.244 123.979 173.787 128.151 173.787 133.298C173.787 138.445 178.244 142.617 183.743 142.617Z" fill="#FFD3B3"/>
<path d="M187.167 133.068C187.354 131.685 185.492 130.291 183.008 129.955C180.524 129.62 178.359 130.47 178.172 131.854C177.985 133.238 179.847 134.631 182.331 134.967C184.815 135.302 186.98 134.452 187.167 133.068Z" fill="#282828"/>
<path d="M182.672 132.779C181.373 136.185 180.974 139.867 181.514 143.472L182.672 132.779Z" fill="#282828"/>
<path d="M182.672 132.779C181.373 136.185 180.974 139.867 181.514 143.472" stroke="#1C3177" stroke-width="0.297227" stroke-miterlimit="10"/>
<path d="M49.6689 256.117L72.6275 282.069L85.0974 276.669L76.0785 272.17L78.9179 259.482L49.6689 256.117Z" fill="#9AD351"/>
<path d="M96.6153 259.757L106.818 250.359L112.322 260.694L96.6153 259.757Z" fill="#9AD351"/>
<path d="M67.377 202.574L132.591 209.694C132.591 209.694 139.775 226.613 132.022 238.696L82.3143 241.793L86.0764 231.187L77.7548 228.369L84.2991 213.814L67.377 202.574Z" fill="#9AD351"/>
</svg>
